<?xml version="1.0" standalone="no"?>
<!DOCTYPE svg PUBLIC "-//W3C//DTD SVG 20010904//EN"
 "http://www.w3.org/TR/2001/REC-SVG-20010904/DTD/svg10.dtd">
<svg version="1.0" xmlns="http://www.w3.org/2000/svg"
 width="960.000000pt" height="960.000000pt" viewBox="0 0 960.000000 960.000000"
 preserveAspectRatio="xMidYMid meet">
<metadata>
Created by potrace 1.11, written by Peter Selinger 2001-2013
</metadata>
<g transform="translate(0.000000,960.000000) scale(0.100000,-0.100000)"
fill="#000000" stroke="none">
<path d="M3600 9019 c0 -5 5 -7 10 -4 6 3 10 8 10 11 0 2 -4 4 -10 4 -5 0 -10
-5 -10 -11z"/>
<path d="M9434 7908 c-3 -5 6 -8 20 -8 30 0 56 -9 56 -20 0 -4 -14 -13 -31
-19 -27 -9 -29 -13 -24 -43 3 -18 10 -67 15 -108 10 -84 5 -95 -47 -106 -28
-6 -32 -4 -38 24 -6 28 -10 30 -62 37 -70 9 -192 9 -201 0 -4 -3 0 -10 8 -15
11 -7 7 -10 -16 -10 -17 0 -45 -5 -63 -11 l-32 -11 7 -72 c4 -39 8 -73 10 -75
8 -9 -20 -31 -40 -31 -12 0 -46 -9 -76 -20 -30 -11 -56 -20 -59 -20 -2 0 -1
-19 2 -42 4 -30 3 -38 -4 -27 -8 10 -9 6 -7 -18 3 -18 1 -30 -4 -27 -4 3 -8
12 -8 20 0 8 -4 14 -10 14 -5 0 -10 -8 -10 -17 0 -12 -3 -14 -8 -6 -9 15 -44
11 -50 -6 -3 -9 -8 -9 -19 1 -14 11 -15 10 -8 -12 7 -21 6 -23 -6 -13 -17 14
-18 22 12 -222 11 -88 33 -272 49 -410 17 -137 32 -260 35 -272 4 -16 -1 -26
-16 -33 -12 -7 -18 -18 -15 -26 3 -8 4 -14 3 -14 -2 0 -52 20 -112 44 -106 43
-109 46 -112 78 -5 55 -32 94 -84 123 -44 24 -50 32 -65 81 -9 30 -13 61 -10
69 3 8 1 17 -4 20 -6 4 -4 15 5 28 13 21 12 26 -9 58 -13 20 -27 55 -30 80 -3
24 -8 55 -13 69 l-7 25 -6 -30 c-3 -16 -2 -49 2 -72 5 -30 3 -50 -7 -70 -19
-36 -19 -48 2 -69 12 -12 18 -38 21 -90 5 -87 -12 -101 -21 -17 -5 50 -14 66
-40 75 -4 2 -14 55 -22 118 -25 192 -19 178 -70 186 -41 6 -45 9 -45 34 0 15
-3 41 -6 58 -6 28 -10 31 -48 34 -39 3 -41 4 -44 39 l-3 37 -112 8 c-146 11
-154 10 -274 -28 -71 -23 -102 -38 -102 -48 0 -10 2 -11 6 -2 2 6 13 12 23 12
10 0 31 7 46 15 16 8 39 15 52 15 22 0 22 -1 6 -25 -15 -23 -42 -26 -28 -3 4
6 1 9 -7 6 -8 -3 -13 -12 -11 -22 2 -10 -4 -16 -16 -16 -22 0 -34 -22 -26 -45
4 -10 0 -15 -11 -15 -12 0 -15 5 -10 20 4 11 2 20 -4 20 -20 0 -12 -42 9 -47
22 -6 26 -18 10 -28 -5 -3 -10 -1 -10 4 0 6 -5 11 -11 11 -6 0 -8 -8 -4 -19 3
-11 1 -23 -6 -26 -8 -6 -8 -10 2 -16 8 -4 18 -1 26 9 11 16 12 16 13 1 0 -9
-7 -19 -15 -23 -9 -3 -15 -18 -15 -36 0 -16 -4 -30 -10 -30 -9 0 -13 27 -15
105 0 17 -4 36 -8 43 -5 6 -6 16 -2 21 3 5 0 13 -6 17 -9 5 -10 -2 -5 -27 4
-19 9 -99 11 -179 2 -80 9 -176 14 -215 6 -38 11 -73 11 -77 0 -3 -14 -9 -31
-13 l-31 -7 6 -72 c4 -39 13 -129 21 -201 8 -71 21 -200 30 -285 9 -85 26
-248 38 -362 l23 -207 -26 -5 c-14 -3 -47 -8 -75 -12 -65 -8 -66 -10 -54 -42
6 -15 11 -70 12 -122 l0 -95 -26 -3 c-15 -2 -27 1 -27 6 0 5 -13 125 -30 268
-16 142 -36 327 -44 409 -19 184 -62 598 -76 720 -5 50 -13 123 -16 163 -4 40
-10 75 -15 77 -4 3 -5 14 -2 24 8 32 -15 64 -43 58 -13 -2 -21 -1 -19 3 8 13
-126 23 -138 11 -6 -6 -18 -11 -26 -11 -13 1 -13 3 2 14 16 12 13 14 -29 21
-25 3 -48 4 -52 1 -3 -3 4 -6 16 -6 58 0 18 -55 -52 -73 -28 -7 -51 -19 -53
-27 -4 -12 -3 -12 5 -1 8 11 16 11 45 2 28 -10 40 -9 56 1 16 10 23 10 33 0 9
-9 7 -12 -9 -12 -12 0 -25 -5 -28 -10 -4 -6 -10 -8 -15 -5 -11 7 -90 -27 -90
-37 0 -5 7 -8 15 -8 18 0 20 -16 4 -26 -6 -3 -16 0 -21 7 -7 10 -8 9 -3 -6 12
-35 15 -90 4 -74 -7 10 -9 1 -8 -31 1 -64 0 -72 -11 -65 -5 3 -10 -1 -10 -10
0 -9 5 -13 10 -10 6 3 10 -3 10 -14 0 -10 3 -28 6 -38 5 -15 4 -16 -6 -3 -9
12 -10 1 -6 -49 3 -35 6 -78 6 -95 0 -24 3 -28 10 -16 7 11 9 3 4 -25 -3 -22
6 -168 21 -325 42 -455 45 -484 40 -488 -9 -9 -14 27 -34 248 -12 124 -23 245
-26 270 -21 201 -36 356 -42 415 -10 123 -31 281 -32 248 -1 -32 -3 -33 -41
-33 -41 0 -53 -13 -22 -25 16 -6 16 -7 -2 -21 -25 -18 -36 -18 -36 1 0 8 -4
15 -10 15 -5 0 -10 -17 -10 -37 0 -54 -11 -65 -69 -71 -28 -2 -51 -9 -51 -14
0 -5 9 -6 20 -3 17 5 20 2 20 -24 0 -34 -11 -39 -33 -17 -9 9 -23 12 -38 9
-24 -7 -24 -7 6 -19 29 -13 30 -13 5 -14 -19 0 -29 -8 -36 -29 -9 -22 -20 -30
-50 -36 -32 -6 -36 -9 -19 -15 19 -7 19 -8 2 -15 -10 -4 -16 -14 -13 -21 3 -7
-3 -18 -12 -24 -15 -8 -15 -11 -2 -20 14 -9 13 -11 -9 -14 -19 -2 -23 -16 -11
-32 8 -9 10 -18 4 -22 -5 -4 -10 -15 -12 -25 -2 -10 -12 -35 -23 -54 l-20 -35
27 6 c24 6 26 5 15 -8 -7 -8 -10 -19 -7 -24 3 -5 -6 -7 -19 -4 -25 4 -25 4 -9
-28 12 -22 13 -34 6 -39 -7 -4 -10 -28 -7 -59 2 -29 -1 -54 -7 -58 -6 -4 -5
-10 3 -15 10 -7 11 -11 3 -16 -7 -5 -10 -26 -9 -48 2 -22 6 -88 10 -147 6
-100 5 -107 -11 -101 -12 4 -14 8 -6 11 9 3 6 10 -8 22 -14 12 -19 26 -16 43
4 25 -10 45 -44 61 -8 4 -5 -1 8 -12 22 -21 29 -47 13 -56 -14 -9 -21 6 -9 21
9 11 7 12 -7 7 -14 -6 -16 -4 -10 6 5 8 4 11 -3 6 -8 -4 -6 -17 4 -42 8 -20
13 -41 10 -47 -2 -7 -5 -4 -5 5 -1 22 -23 28 -42 11 -14 -12 -21 -11 -52 7
-19 12 -38 27 -41 35 -3 8 -14 15 -25 15 -11 0 -26 6 -34 14 -11 12 -15 11
-25 -5 -16 -26 -15 -38 2 -16 13 16 14 16 27 0 7 -10 9 -15 5 -11 -10 9 -36
-9 -36 -24 0 -5 9 -6 20 -3 12 4 20 2 20 -5 0 -6 -4 -8 -10 -5 -5 3 -10 -4 -9
-17 0 -33 -23 -118 -33 -118 -7 0 -12 15 -9 33 0 4 -4 7 -9 7 -6 0 -10 -4 -10
-10 0 -21 -2 -25 -16 -33 -21 -12 -30 -1 -14 18 18 22 4 19 -30 -7 -17 -12
-30 -30 -30 -40 0 -23 -16 -24 -24 -2 -6 15 -8 15 -25 -2 -10 -10 -16 -23 -14
-27 3 -5 -11 -5 -31 -2 -25 5 -36 4 -36 -5 0 -7 8 -10 20 -7 13 3 20 0 20 -9
0 -16 -26 -19 -35 -3 -4 6 -13 8 -21 5 -8 -3 -14 1 -14 9 0 8 -4 15 -10 15 -5
0 -10 -18 -10 -40 0 -22 -4 -40 -10 -40 -5 0 -10 8 -10 18 0 14 -2 14 -9 3 -6
-10 -3 -20 12 -33 l22 -18 -23 -19 c-13 -11 -30 -17 -37 -14 -8 3 -15 0 -15
-6 0 -6 -12 -11 -26 -11 -18 0 -28 -6 -31 -20 -4 -13 -13 -20 -27 -19 -50 5
-56 1 -56 -40 0 -22 -6 -42 -12 -45 -10 -5 -10 -7 0 -12 15 -7 16 -54 1 -54
-6 0 -9 7 -5 15 3 9 0 15 -8 15 -8 0 -16 -5 -18 -12 -9 -25 -28 5 -28 43 l0
40 -25 -18 c-13 -10 -22 -25 -20 -33 2 -8 5 -42 6 -75 3 -51 0 -60 -15 -63
-11 -3 -16 0 -12 7 4 6 2 11 -3 11 -7 0 -11 29 -11 76 0 67 -2 75 -15 64 -8
-7 -15 -19 -15 -26 0 -8 -7 -14 -15 -14 -20 0 -19 17 1 28 14 8 14 10 -2 26
-16 17 -18 16 -30 -11 -8 -19 -13 -22 -13 -10 -1 19 -16 23 -26 6 -4 -6 1 -17
11 -24 18 -13 17 -14 -8 -15 -16 0 -34 -10 -46 -25 -22 -28 -32 -23 -32 16 0
15 -5 31 -10 34 -23 14 -47 -114 -30 -160 6 -15 5 -25 -1 -27 -6 -2 -10 -31
-10 -66 -1 -58 -11 -84 -27 -67 -4 4 -2 10 4 12 7 2 10 13 7 24 -5 18 -6 19
-20 2 -10 -13 -16 -15 -19 -5 -3 6 -13 12 -22 12 -15 -1 -15 -2 1 -14 21 -16
22 -26 2 -26 -9 0 -20 10 -25 22 -7 18 -9 19 -9 6 -1 -10 -7 -18 -15 -18 -10
0 -14 15 -15 55 -1 79 -42 143 -67 103 -4 -6 1 -17 11 -25 17 -12 15 -13 -17
-13 -20 0 -39 -4 -42 -9 -3 -5 -7 -39 -8 -75 l-2 -66 -33 6 c-25 5 -39 2 -53
-11 -20 -18 -50 -14 -50 6 0 8 4 8 15 -1 20 -16 22 -14 30 35 l6 40 -16 -28
c-12 -21 -21 -26 -36 -22 -15 5 -22 2 -26 -13 -4 -15 -18 -24 -54 -31 -28 -6
-58 -11 -67 -11 -9 0 -30 -11 -47 -24 -19 -16 -35 -21 -45 -16 -8 4 -35 10
-60 13 -25 3 -61 9 -81 12 -31 6 -39 4 -58 -20 -12 -16 -24 -25 -28 -21 -4 4
-1 11 7 16 11 7 12 12 4 20 -9 9 -15 4 -25 -19 -8 -17 -17 -31 -22 -31 -4 0
-3 9 3 19 13 26 14 52 0 31 -6 -9 -26 -15 -56 -16 -25 -1 -50 -7 -54 -14 -4
-7 -15 -10 -24 -7 -20 8 -39 -26 -30 -56 4 -14 3 -19 -3 -12 -6 6 -29 64 -52
130 -47 138 -54 146 -179 202 -58 26 -82 42 -82 55 0 10 -4 18 -9 18 -6 0 -7
15 -4 34 4 29 0 40 -32 75 l-37 41 21 52 c20 50 25 98 34 300 2 50 -28 80
-109 112 -117 47 -209 29 -291 -56 -47 -49 -56 -105 -31 -210 11 -46 24 -90
29 -99 10 -19 -6 -29 -48 -29 -32 0 -137 -56 -173 -92 -21 -20 -29 -41 -35
-83 -10 -82 -25 -104 -97 -140 -56 -28 -66 -37 -89 -86 -15 -30 -32 -70 -38
-89 -41 -135 -135 -408 -143 -416 -2 -1 -184 -4 -406 -6 l-402 -4 0 51 c0 70
-11 145 -21 145 -5 0 -10 -46 -11 -102 l-3 -103 -105 0 -105 0 -3 85 c-4 123
-14 129 -26 15 l-11 -100 -40 -7 c-22 -4 -175 -11 -340 -17 -165 -6 -508 -18
-762 -28 l-463 -17 0 -118 0 -118 67 0 c37 0 153 4 258 10 404 21 371 21 385
-6 11 -19 11 -26 0 -39 -11 -13 3 -14 126 -9 187 8 209 13 209 47 1 15 5 31
10 36 6 5 91 14 190 21 274 17 349 18 363 8 8 -7 13 -45 14 -112 l2 -101 5
102 c3 56 8 104 11 107 4 3 50 8 103 12 72 5 100 4 112 -6 12 -10 15 -44 15
-201 0 -220 15 -199 -140 -202 l-95 -2 -6 95 c-6 105 -11 93 -13 -29 -1 -44
-4 -82 -7 -86 -3 -3 -71 -8 -150 -11 -79 -3 -147 -8 -150 -9 -3 -2 -43 -5 -90
-5 -176 -4 -1128 -56 -1186 -66 -33 -5 -33 -5 -33 -63 l0 -57 87 3 c97 3 98 5
-24 -49 l-63 -27 0 -45 0 -44 100 44 c55 24 153 62 217 84 65 22 129 46 143
54 16 8 78 16 174 20 82 4 154 10 159 13 5 3 62 7 126 9 64 2 139 6 166 8 28
2 88 7 135 10 47 3 128 11 180 16 155 16 189 15 206 -2 15 -14 18 -14 35 3 15
15 34 19 83 19 36 0 67 4 70 9 3 5 20 6 38 2 33 -7 33 -7 38 -76 9 -124 0
-356 -13 -353 -7 1 -36 -4 -65 -10 -66 -15 -149 -16 -157 -1 -5 7 -13 5 -25
-6 -14 -12 -43 -18 -107 -21 -48 -2 -135 -9 -193 -15 -107 -12 -128 -13 -375
-23 -77 -4 -169 -8 -205 -11 -95 -6 -519 -35 -630 -43 l-95 -7 -3 -62 -3 -63
38 0 c21 0 80 5 132 10 82 9 98 8 119 -6 31 -21 402 -384 402 -395 0 -15 -227
-35 -368 -31 -54 2 -81 -1 -77 -8 4 -6 -21 -10 -69 -10 -41 0 -98 -5 -126 -11
l-50 -11 0 -69 0 -70 43 5 c23 3 63 8 90 11 31 4 47 3 47 -5 0 -7 13 -9 38 -4
l37 6 -53 -54 c-46 -47 -56 -53 -85 -50 -46 5 -117 -15 -117 -33 0 -8 6 -15
13 -15 8 0 7 -4 -3 -10 -10 -6 -2 -7 25 -3 49 7 58 13 20 13 -16 0 -25 3 -22
7 8 7 97 22 97 15 0 -2 -29 -34 -66 -72 l-65 -68 3 -57 3 -57 122 124 c110
111 126 123 160 125 21 2 65 7 98 13 33 5 90 13 128 16 37 3 67 10 67 14 0 19
-257 -6 -298 -28 -39 -22 -24 3 42 66 47 45 68 60 83 56 12 -3 24 -1 27 5 4 6
0 11 -9 11 -9 0 -13 5 -10 10 3 6 31 10 61 10 30 0 85 4 122 9 37 6 161 17
277 26 126 10 223 22 243 31 18 8 39 11 45 7 6 -4 28 -6 47 -5 l35 2 -25 -15
-25 -15 30 6 c23 4 26 3 15 -5 -13 -9 -13 -11 2 -11 39 0 69 29 31 31 -15 0
-15 2 2 8 19 8 81 15 233 27 30 2 58 6 63 10 24 14 39 -19 39 -87 0 -38 4 -69
9 -69 11 0 21 25 21 51 0 11 7 19 17 19 18 0 8 15 -10 15 -16 1 -11 56 5 67 7
5 29 7 48 6 38 -2 88 9 106 24 15 12 64 -8 64 -26 0 -7 -10 -17 -22 -21 l-23
-8 21 -4 c13 -2 24 -14 26 -28 4 -20 0 -24 -31 -29 -20 -3 -54 -6 -76 -6 -55
0 -115 -11 -115 -21 0 -4 49 -5 110 -2 l110 6 1 -29 c4 -84 1 -112 -9 -98 -5
8 -17 8 -42 0 l-35 -11 48 -3 47 -3 0 -74 c0 -68 -2 -74 -22 -78 l-23 -4 23
-2 c47 -3 4 -41 -45 -39 -10 0 -43 -3 -73 -7 -91 -13 -93 -12 -101 18 -4 15
-5 73 -2 130 6 120 6 137 -2 146 -4 3 -11 -2 -16 -12 -6 -9 -16 -17 -24 -17
-8 0 -16 -4 -19 -9 -4 -5 2 -7 13 -4 24 6 27 -13 25 -150 0 -64 -6 -113 -12
-119 -6 -6 -26 -12 -44 -13 -18 -2 -76 -8 -128 -14 -52 -6 -156 -16 -230 -21
-185 -13 -249 -20 -255 -31 -3 -4 -34 -6 -68 -2 -34 3 -141 -2 -237 -11 -240
-22 -336 -24 -332 -8 1 8 -11 12 -37 12 -48 0 -71 8 -71 25 0 8 -24 12 -82 14
-98 1 -118 -4 -118 -31 0 -18 4 -20 42 -15 27 4 37 2 27 -4 -7 -5 -26 -9 -41
-9 l-28 0 0 -92 0 -93 57 -2 c31 -1 59 -7 64 -14 4 -8 17 -9 35 -4 16 4 43 7
59 7 62 0 225 21 231 29 3 5 2 9 -3 10 -4 0 -19 2 -33 4 -14 1 -52 -2 -85 -7
-33 -4 -100 -10 -150 -13 -141 -6 -62 12 110 25 83 6 193 16 245 21 52 5 136
12 185 15 58 4 96 12 107 21 11 10 26 13 43 9 16 -4 25 -2 25 5 0 8 4 8 14 0
21 -17 217 -4 233 16 8 10 13 11 18 3 6 -9 10 -9 16 1 6 10 11 11 17 3 5 -8
53 -6 172 8 91 10 183 17 205 16 l40 -3 3 -72 c3 -71 2 -72 -27 -88 -17 -8
-52 -15 -79 -15 -41 0 -122 -22 -122 -33 0 -2 42 -2 93 0 60 1 83 -1 67 -6
-14 -5 -47 -10 -75 -11 -27 -1 -63 -6 -80 -10 l-30 -8 30 -3 c17 -1 57 -3 90
-4 86 -2 135 -13 135 -30 0 -19 -33 -19 -68 -1 -46 23 -185 26 -249 4 -31 -10
-72 -18 -91 -18 -33 0 -78 -11 -127 -31 -11 -4 -49 -8 -85 -7 -37 0 -84 -7
-109 -16 -28 -10 -48 -13 -55 -7 -15 13 -128 15 -300 6 -127 -6 -145 -9 -197
-36 -49 -24 -77 -30 -193 -40 l-136 -12 0 -669 0 -668 4800 0 4800 0 0 3948 0
3948 -81 10 c-44 5 -83 6 -85 2z m-314 -288 c0 -5 -2 -10 -4 -10 -3 0 -8 5
-11 10 -3 6 -1 10 4 10 6 0 11 -4 11 -10z m-57 -31 c-6 -22 -26 -20 -31 2 -1
8 6 15 17 16 14 1 17 -3 14 -18z m-140 -196 c-7 -2 -21 -2 -30 0 -10 3 -4 5
12 5 17 0 24 -2 18 -5z m-26 -19 c-3 -3 -12 -4 -19 -1 -8 3 -5 6 6 6 11 1 17
-2 13 -5z m-120 -116 c-3 -8 -6 -5 -6 6 -1 11 2 17 5 13 3 -3 4 -12 1 -19z
m-997 -67 c0 -12 -20 -25 -27 -18 -7 7 6 27 18 27 5 0 9 -4 9 -9z m1010 -86
c0 -5 -5 -3 -10 5 -5 8 -10 20 -10 25 0 6 5 3 10 -5 5 -8 10 -19 10 -25z
m-1120 -30 c0 -8 -4 -15 -10 -15 -5 0 -10 7 -10 15 0 8 5 15 10 15 6 0 10 -7
10 -15z m-563 -191 c-3 -3 -12 -4 -19 -1 -8 3 -5 6 6 6 11 1 17 -2 13 -5z
m148 -54 c3 -5 1 -10 -4 -10 -6 0 -11 5 -11 10 0 6 2 10 4 10 3 0 8 -4 11 -10z
m-538 -302 c-3 -8 -6 -5 -6 6 -1 11 2 17 5 13 3 -3 4 -12 1 -19z m-37 -52 c0
-15 -14 -35 -21 -30 -15 9 -10 34 6 34 8 0 15 -2 15 -4z m197 -138 c-3 -8 -6
-5 -6 6 -1 11 2 17 5 13 3 -3 4 -12 1 -19z m1793 -14 c49 -20 90 -38 90 -40 0
-2 -42 -4 -94 -4 l-93 0 -7 31 c-5 28 -1 49 10 49 2 0 44 -16 94 -36z m-2190
-49 c0 -8 -6 -15 -14 -15 -20 0 -29 17 -14 23 22 9 28 7 28 -8z m1526 -164
c15 -29 8 -50 -20 -60 -23 -9 -65 6 -67 23 -3 25 4 51 15 59 21 14 60 2 72
-22z m-2056 -705 c0 -2 -7 -6 -15 -10 -8 -3 -15 -1 -15 4 0 6 7 10 15 10 8 0
15 -2 15 -4z m50 -10 c0 -2 -7 -7 -16 -10 -8 -3 -12 -2 -9 4 6 10 25 14 25 6z
m-56 -25 c3 -5 -3 -11 -13 -14 -14 -3 -18 -1 -14 9 6 16 19 18 27 5z m-178
-77 c-4 -9 -9 -15 -11 -12 -3 3 -3 13 1 22 4 9 9 15 11 12 3 -3 3 -13 -1 -22z
m24 -29 c0 -8 -4 -15 -10 -15 -5 0 -10 7 -10 15 0 8 5 15 10 15 6 0 10 -7 10
-15z m40 0 c0 -8 -4 -15 -10 -15 -5 0 -10 7 -10 15 0 8 5 15 10 15 6 0 10 -7
10 -15z m-110 -69 c0 -11 -19 -15 -25 -6 -3 5 1 10 9 10 9 0 16 -2 16 -4z
m107 -18 c-3 -8 -6 -5 -6 6 -1 11 2 17 5 13 3 -3 4 -12 1 -19z m-388 -135 c-1
-37 -1 -37 -8 -8 -7 28 -5 45 5 45 2 0 3 -17 3 -37z m-259 -93 c0 -5 -2 -10
-4 -10 -3 0 -8 5 -11 10 -3 6 -1 10 4 10 6 0 11 -4 11 -10z m230 -54 c0 -3 -4
-8 -10 -11 -5 -3 -10 -1 -10 4 0 6 5 11 10 11 6 0 10 -2 10 -4z m852 -68 c-7
-7 -12 -8 -12 -2 0 14 12 26 19 19 2 -3 -1 -11 -7 -17z m-867 2 c3 -5 -3 -10
-15 -10 -12 0 -18 5 -15 10 3 6 10 10 15 10 5 0 12 -4 15 -10z m-1215 -194 c0
-3 -4 -8 -10 -11 -5 -3 -10 -1 -10 4 0 6 5 11 10 11 6 0 10 -2 10 -4z m113
-113 c-7 -2 -19 -2 -25 0 -7 3 -2 5 12 5 14 0 19 -2 13 -5z m842 -7 c19 -14
17 -15 -30 -16 -96 0 -124 24 -32 28 25 2 50 -3 62 -12z m122 -62 c-3 -3 -12
-4 -19 -1 -8 3 -5 6 6 6 11 1 17 -2 13 -5z m-657 -34 c0 -5 -4 -10 -10 -10 -5
0 -10 5 -10 10 0 6 5 10 10 10 6 0 10 -4 10 -10z m-160 -10 c-8 -5 -46 -9 -85
-8 l-70 2 75 6 c41 4 80 7 85 8 6 1 3 -3 -5 -8z m115 5 c-23 -8 -83 -10 -79
-3 3 4 24 8 47 7 23 0 38 -2 32 -4z m-295 -15 c-31 -10 -152 -11 -127 -2 9 4
47 8 85 8 45 1 59 -1 42 -6z m1485 -70 c7 -12 -2 -12 -30 0 -19 8 -19 9 2 9
12 1 25 -3 28 -9z m-152 -7 c-7 -2 -19 -2 -25 0 -7 3 -2 5 12 5 14 0 19 -2 13
-5z m-1121 -10 c-62 -2 -161 -2 -220 0 -59 1 -8 3 113 3 121 0 169 -2 107 -3z
m1808 -203 l-45 -8 50 4 c57 5 79 6 153 5 41 -1 52 -5 52 -17 0 -12 6 -15 25
-10 14 4 25 2 25 -4 0 -5 10 -11 23 -11 l22 -2 -22 -4 c-15 -3 -23 -12 -23
-24 0 -16 7 -19 45 -19 26 0 45 -5 45 -11 0 -6 -6 -9 -14 -6 -8 3 -48 2 -89
-2 -42 -4 -73 -3 -71 1 3 4 -2 8 -10 8 -9 0 -16 -5 -16 -11 0 -7 -10 -9 -27
-4 -22 5 -25 4 -16 -6 8 -8 35 -11 73 -10 37 1 60 -2 60 -8 0 -6 23 -12 53
-12 29 -1 40 -4 24 -6 -15 -2 -25 -8 -22 -12 2 -5 -31 -7 -75 -5 -44 2 -82 -1
-85 -7 -6 -8 45 -15 85 -11 85 9 119 6 129 -10 8 -13 6 -18 -8 -23 -11 -3 -22
-13 -25 -22 -5 -13 -1 -15 28 -10 18 3 38 2 42 -3 5 -4 18 -11 29 -14 11 -3 2
-3 -19 -1 -23 2 -46 -1 -55 -8 -10 -8 -13 -8 -8 0 5 7 -9 12 -44 15 -60 4 -65
1 -39 -22 13 -11 18 -24 14 -34 -6 -15 -21 -17 -119 -14 -62 2 -111 0 -109 -3
2 -3 -142 -9 -319 -13 -461 -11 -568 -14 -782 -20 -542 -16 -774 -21 -1017
-21 -146 0 -264 -3 -261 -7 2 -5 -5 -8 -15 -8 -14 0 -21 9 -24 31 -4 25 -1 32
17 39 43 16 189 208 217 286 11 31 12 31 97 37 47 3 203 6 346 7 143 2 458 5
700 9 678 9 1055 10 1005 1z m313 -17 c-7 -2 -19 -2 -25 0 -7 3 -2 5 12 5 14
0 19 -2 13 -5z m2384 -19 c-3 -3 -12 -4 -19 -1 -8 3 -5 6 6 6 11 1 17 -2 13
-5z m-6277 -33 c33 -82 187 -239 276 -281 29 -15 43 -28 47 -46 2 -14 0 -27
-7 -29 -6 -2 -171 -9 -366 -15 -195 -7 -440 -15 -545 -19 -104 -5 -196 -6
-202 -3 -10 3 -13 53 -13 203 0 109 3 200 8 200 9 2 427 13 633 17 l156 3 13
-30z m4020 -91 c0 -5 -2 -10 -4 -10 -3 0 -8 5 -11 10 -3 6 -1 10 4 10 6 0 11
-4 11 -10z m127 -16 c-3 -3 -12 -4 -19 -1 -8 3 -5 6 6 6 11 1 17 -2 13 -5z
m730 -26 c-3 -8 -6 -5 -6 6 -1 11 2 17 5 13 3 -3 4 -12 1 -19z m-869 -22 c-7
-7 -19 -11 -25 -9 -22 9 -14 23 12 23 21 0 24 -2 13 -14z m225 -63 c-7 -2 -19
-2 -25 0 -7 3 -2 5 12 5 14 0 19 -2 13 -5z m627 -23 c-8 -5 -22 -9 -30 -9 -10
0 -8 3 5 9 27 12 43 12 25 0z m-980 -10 c0 -5 -4 -10 -10 -10 -5 0 -10 5 -10
10 0 6 5 10 10 10 6 0 10 -4 10 -10z m147 4 c-3 -3 -12 -4 -19 -1 -8 3 -5 6 6
6 11 1 17 -2 13 -5z m570 0 c-3 -3 -12 -4 -19 -1 -8 3 -5 6 6 6 11 1 17 -2 13
-5z m196 -1 c-7 -2 -21 -2 -30 0 -10 3 -4 5 12 5 17 0 24 -2 18 -5z m-1183
-145 c0 -9 3 -9 12 0 17 17 90 15 124 -3 16 -8 23 -15 15 -15 -7 0 -11 -6 -8
-14 7 -18 -12 -26 -38 -15 -17 6 -17 8 -2 8 10 1 17 9 17 22 0 12 -5 19 -12
16 -7 -2 -12 -10 -10 -17 1 -7 -4 -9 -17 -5 -13 4 -20 0 -24 -15 -7 -26 1 -30
56 -25 26 2 47 -1 47 -6 0 -9 -29 -12 -100 -10 -49 1 -26 -7 50 -18 57 -7 68
-6 89 10 13 11 29 19 35 19 6 0 -6 -11 -26 -25 -20 -14 -41 -25 -47 -25 -5 0
-11 -4 -13 -10 -1 -5 -14 -6 -28 -3 l-25 7 25 7 c23 7 23 8 -5 6 -22 -1 -30
-7 -29 -19 1 -11 -5 -18 -15 -18 -19 0 -52 20 -33 20 6 0 12 4 12 9 0 5 -12 8
-27 8 -16 0 -22 -2 -15 -4 6 -3 9 -9 6 -15 -9 -15 16 -28 56 -28 l35 -1 -40
-34 c-22 -19 -46 -33 -52 -30 -7 2 -36 7 -65 9 l-53 5 47 -12 c25 -7 49 -14
51 -17 7 -7 -84 -5 -103 2 -22 8 -121 26 -149 26 -13 1 -31 -3 -40 -7 -29 -15
-91 -23 -91 -11 0 5 3 9 8 8 4 -2 7 2 7 7 0 6 -13 9 -30 8 -16 -1 -78 -5 -137
-9 -109 -7 -169 1 -118 16 14 4 31 3 37 -3 8 -6 23 -6 40 1 16 5 42 7 59 5 20
-3 35 1 44 12 13 15 11 16 -21 10 -19 -3 -71 -7 -117 -9 -66 -2 -82 0 -78 11
4 11 1 11 -14 3 -26 -14 -25 -30 1 -30 18 0 20 -2 8 -16 -8 -10 -23 -14 -38
-11 -22 4 -77 -8 -61 -13 23 -7 69 -12 146 -14 51 -2 97 -7 103 -10 6 -4 11
-4 11 1 0 10 210 10 227 0 7 -5 9 -1 6 13 -5 18 -1 20 43 19 60 -1 106 -13 84
-22 -8 -3 -28 -8 -45 -10 -16 -2 4 -4 45 -5 41 0 87 -3 101 -7 16 -4 30 -2 33
4 4 6 12 11 19 11 23 0 -29 -40 -53 -41 -87 -4 -226 4 -232 14 -8 13 -448 19
-448 6 0 -5 35 -9 78 -9 58 -1 73 -3 59 -11 -9 -6 -27 -9 -40 -7 -13 2 -21 -2
-19 -9 1 -7 -5 -13 -13 -13 -8 0 -15 -4 -15 -10 0 -5 6 -10 14 -10 8 0 17 -6
20 -12 5 -10 7 -10 12 0 8 17 54 15 54 -3 0 -20 -20 -23 -230 -29 -123 -4
-180 -3 -170 4 12 7 8 10 -15 10 -23 0 -27 -3 -15 -10 11 -7 0 -10 -40 -10
-30 1 -73 -1 -95 -3 -22 -3 -173 -10 -335 -16 -162 -7 -392 -16 -511 -21 -119
-6 -250 -10 -291 -10 l-76 0 -4 143 c-2 80 0 145 5 148 5 4 8 27 6 52 l-4 45
105 6 c164 9 1169 31 1427 31 127 0 229 3 226 8 -2 4 68 7 157 7 125 0 161 -3
157 -12 -2 -7 -17 -12 -33 -11 -16 1 -83 4 -149 7 -96 4 -109 3 -66 -5 80 -14
76 -20 -9 -13 -54 5 -71 4 -66 -4 4 -8 0 -12 -11 -13 -14 0 -12 -3 6 -10 35
-14 134 -14 139 0 5 15 31 14 47 -3 12 -12 11 -15 -8 -20 -12 -3 -47 -6 -77
-7 -43 -1 -49 -3 -30 -9 22 -7 21 -8 -12 -9 -21 -1 -38 4 -38 10 0 7 -13 9
-37 5 -25 -4 -48 -1 -65 8 -16 8 -28 13 -28 11 0 -12 36 -45 50 -46 8 -1 -1
-5 -20 -9 l-35 -7 36 -2 c22 0 42 5 49 14 8 10 21 13 39 9 42 -10 51 -27 11
-20 -30 4 -28 3 10 -9 29 -10 61 -13 88 -9 26 4 47 2 56 -5 8 -7 16 -8 19 -4
6 10 151 8 190 -2 19 -5 27 -3 27 5 0 9 4 9 13 2 14 -12 143 -19 154 -9 3 4
-5 8 -18 8 -13 1 -42 3 -64 4 -21 1 -40 6 -42 12 -2 5 -34 7 -71 5 -45 -2 -62
0 -53 6 10 7 -3 11 -43 13 -31 2 -60 1 -64 -2 -14 -13 -55 -22 -48 -10 4 7 -1
11 -13 11 -11 0 -22 4 -25 9 -5 7 89 15 134 11 42 -3 85 1 96 11 16 13 71 16
104 6 24 -8 24 -7 6 7 -11 9 -31 16 -45 16 -36 0 -21 8 24 13 27 3 39 9 41 22
2 14 -3 16 -25 12 -20 -4 -28 -2 -28 9 0 11 17 14 84 13 46 -1 87 2 90 5 10
10 23 7 23 -6z m1310 8 c0 -2 -7 -6 -15 -10 -8 -3 -15 -1 -15 4 0 6 7 10 15
10 8 0 15 -2 15 -4z m-1530 -16 c-20 -13 -43 -13 -35 0 3 6 16 10 28 10 18 0
19 -2 7 -10z m-50 -16 c0 -2 -7 -4 -15 -4 -8 0 -15 4 -15 10 0 5 7 7 15 4 8
-4 15 -8 15 -10z m953 9 c-7 -2 -19 -2 -25 0 -7 3 -2 5 12 5 14 0 19 -2 13 -5z
m1150 -10 c-7 -2 -19 -2 -25 0 -7 3 -2 5 12 5 14 0 19 -2 13 -5z m-1188 -13
c3 -6 -1 -7 -9 -4 -18 7 -21 14 -7 14 6 0 13 -4 16 -10z m-428 -6 c-3 -3 -12
-4 -19 -1 -8 3 -5 6 6 6 11 1 17 -2 13 -5z m258 -4 c-3 -5 -12 -10 -18 -10 -7
0 -6 4 3 10 19 12 23 12 15 0z m-845 -4 c0 -2 -11 -6 -25 -8 -14 -3 -25 -1
-25 3 0 5 11 9 25 9 14 0 25 -2 25 -4z m965 -6 c13 -5 14 -9 5 -9 -8 0 -24 4
-35 9 -13 5 -14 9 -5 9 8 0 24 -4 35 -9z m-1142 -7 c-13 -2 -33 -2 -45 0 -13
2 -3 4 22 4 25 0 35 -2 23 -4z m292 -3 c7 -12 -2 -12 -30 0 -19 8 -19 9 2 9
12 1 25 -3 28 -9z m1375 0 c0 -5 -2 -10 -4 -10 -3 0 -8 5 -11 10 -3 6 -1 10 4
10 6 0 11 -4 11 -10z m-4485 -20 c3 -5 17 -10 31 -10 28 0 31 -16 9 -47 -14
-20 -14 -24 3 -41 16 -16 20 -41 25 -159 l7 -141 -83 -6 c-89 -7 -684 -35
-757 -35 -51 -1 -223 -18 -260 -27 l-25 -5 2 216 c1 119 3 218 5 220 2 2 134
9 293 15 241 10 445 18 707 28 20 1 40 -2 43 -8z m2972 -6 c-3 -3 -12 -4 -19
-1 -8 3 -5 6 6 6 11 1 17 -2 13 -5z m806 -1 c-7 -2 -21 -2 -30 0 -10 3 -4 5
12 5 17 0 24 -2 18 -5z m290 0 c-7 -2 -19 -2 -25 0 -7 3 -2 5 12 5 14 0 19 -2
13 -5z m524 -9 c-3 -3 -12 -4 -19 -1 -8 3 -5 6 6 6 11 1 17 -2 13 -5z m60 0
c-3 -3 -12 -4 -19 -1 -8 3 -5 6 6 6 11 1 17 -2 13 -5z m-764 -11 c-7 -2 -19
-2 -25 0 -7 3 -2 5 12 5 14 0 19 -2 13 -5z m-858 -33 c3 -5 1 -10 -4 -10 -6 0
-11 5 -11 10 0 6 2 10 4 10 3 0 8 -4 11 -10z m683 -3 c27 1 31 -1 22 -12 -9
-11 -6 -14 12 -18 21 -4 20 -4 -4 -6 -15 0 -30 4 -33 9 -3 6 -17 10 -30 10
-12 0 -26 7 -29 16 -5 13 -2 14 11 8 10 -4 33 -7 51 -7z m332 -7 c-8 -5 -26
-9 -40 -9 -23 1 -23 2 5 9 43 11 52 11 35 0z m90 6 c0 -9 -40 -13 -46 -5 -3 5
6 9 20 9 14 0 26 -2 26 -4z m-510 -42 c0 -2 -11 -3 -24 -2 -14 1 -23 5 -20 9
4 7 44 0 44 -7z m60 12 c0 -2 -7 -6 -15 -10 -8 -3 -15 -1 -15 4 0 6 7 10 15
10 8 0 15 -2 15 -4z m163 -3 c-7 -2 -21 -2 -30 0 -10 3 -4 5 12 5 17 0 24 -2
18 -5z m44 1 c-3 -3 -12 -4 -19 -1 -8 3 -5 6 6 6 11 1 17 -2 13 -5z m-315 -32
c-18 -3 -21 -7 -12 -17 8 -9 5 -14 -11 -18 -15 -4 -19 -2 -15 9 3 8 0 14 -7
14 -7 0 -4 7 6 14 10 8 27 11 40 8 l22 -7 -23 -3z m-63 -36 c10 -12 8 -13 -8
-9 -12 3 -18 9 -15 14 7 12 10 11 23 -5z m351 -6 c0 -4 -8 -7 -17 -5 -10 2
-20 4 -23 4 -3 1 2 5 10 10 15 10 30 6 30 -9z m-396 -21 c-7 -12 57 -9 66 3 3
4 17 4 30 1 22 -6 23 -7 4 -14 -10 -4 -45 -8 -78 -8 -51 -1 -57 1 -46 14 14
17 35 21 24 4z m-584 -23 c19 0 59 4 88 8 40 6 55 4 67 -8 18 -18 20 -33 3
-18 -8 6 -39 7 -78 3 l-65 -7 60 -7 c33 -5 70 -9 83 -10 12 -1 22 -6 22 -10 0
-4 -28 -7 -62 -7 -118 2 -193 -3 -199 -13 -4 -6 -15 -6 -25 -2 -17 6 -15 9 11
21 17 7 47 13 68 14 23 0 36 4 32 10 -8 13 -88 13 -100 1 -6 -6 -25 -6 -45 -1
l-35 8 37 1 c28 1 36 5 32 16 -5 11 1 13 33 7 21 -4 54 -7 73 -6z m780 8 c0
-12 -26 -30 -38 -26 -10 3 -8 8 5 18 19 14 33 18 33 8z m50 -8 c0 -3 -4 -8
-10 -11 -5 -3 -10 -1 -10 4 0 6 5 11 10 11 6 0 10 -2 10 -4z m-290 -14 c0 -4
-15 -16 -32 -26 l-33 -18 30 26 c34 28 35 29 35 18z m333 1 c-7 -2 -19 -2 -25
0 -7 3 -2 5 12 5 14 0 19 -2 13 -5z m-608 -13 c-22 -4 -49 -4 -60 1 -13 5 0 8
40 7 56 0 58 -1 20 -8z m385 1 c0 -5 12 -14 28 -19 22 -9 13 -10 -48 -10 -58
1 -67 2 -40 8 19 4 31 8 25 9 -5 1 -3 6 5 11 19 12 30 13 30 1z m90 -11 c0 -5
-5 -10 -11 -10 -5 0 -7 5 -4 10 3 6 8 10 11 10 2 0 4 -4 4 -10z m-190 -10 c0
-5 -5 -10 -11 -10 -5 0 -7 5 -4 10 3 6 8 10 11 10 2 0 4 -4 4 -10z m-232 -12
c47 -1 -74 -16 -138 -16 l-45 0 54 9 c30 5 57 12 60 14 3 3 11 3 19 0 7 -3 30
-6 50 -7z m3049 -34 c-3 -3 -12 -4 -19 -1 -8 3 -5 6 6 6 11 1 17 -2 13 -5z
m-3192 -104 c-3 -5 1 -10 9 -10 8 0 18 5 21 10 7 12 45 14 45 3 0 -5 -10 -19
-21 -33 -17 -21 -19 -22 -15 -5 5 19 1 20 -67 18 -48 -1 -64 1 -47 6 l25 8
-30 5 c-19 3 -9 6 28 7 37 0 56 -3 52 -9z m270 0 c24 -6 26 -8 8 -9 -38 -2
-31 -17 32 -66 19 -16 19 -16 -5 -9 -45 13 -68 12 -87 -2 -17 -13 -17 -13 1
-14 11 0 31 -10 44 -22 21 -19 24 -20 19 -5 -6 16 -2 17 36 12 30 -4 38 -3 27
5 -11 7 -11 10 -2 10 7 0 15 -7 18 -15 8 -21 74 -32 85 -14 13 20 11 27 -8 31
-11 3 -5 6 13 9 24 4 31 2 27 -8 -3 -8 6 -15 28 -20 31 -6 32 -7 9 -15 -32
-12 -12 -31 34 -32 19 -1 38 -5 42 -9 10 -10 -169 -7 -185 3 -19 11 -51 0 -51
-18 0 -12 3 -13 12 -4 7 7 21 12 33 11 17 -1 16 -2 -5 -9 -24 -8 -24 -8 7 -9
17 -1 34 -5 37 -9 7 -12 -137 -7 -159 6 -19 11 -19 11 -2 12 10 0 17 5 15 11
-2 6 -7 10 -11 10 -4 -1 -16 -1 -27 -1 -11 0 -20 -6 -20 -14 0 -15 -76 -34
-87 -22 -4 3 5 6 18 7 13 0 33 5 44 10 14 6 -1 8 -47 4 -41 -3 -68 -2 -68 4 0
5 -9 11 -20 13 -20 3 -19 5 10 44 27 37 80 65 80 43 0 -5 5 -9 10 -9 6 0 9 6
8 13 -2 7 9 12 30 13 18 1 36 4 40 8 9 9 -28 37 -39 30 -5 -3 -9 0 -9 7 0 8
-4 8 -16 -2 -14 -12 -14 -14 3 -20 13 -6 14 -8 3 -8 -8 -1 -26 -4 -40 -8 -24
-5 -23 -4 9 31 35 36 50 40 106 26z m-395 -9 c0 -10 -49 -21 -96 -21 -23 0
-32 -4 -28 -13 3 -8 -3 -13 -16 -13 -13 0 -19 5 -16 13 6 16 -4 16 -38 3 -17
-6 -26 -6 -26 0 0 6 -4 10 -9 10 -4 0 -6 -11 -4 -25 5 -22 8 -24 48 -18 26 3
45 1 49 -6 4 -6 19 -11 34 -11 24 0 25 -1 10 -16 -14 -14 -52 -23 -115 -25
-13 -1 -23 -5 -23 -10 0 -9 19 -13 55 -10 17 2 18 0 5 -9 -11 -7 0 -8 40 -4
60 7 79 14 37 14 -40 0 -33 13 15 28 34 11 43 11 49 0 7 -10 9 -9 9 5 0 13 8
17 33 16 17 0 25 -3 17 -6 -8 -3 -19 -12 -23 -19 -4 -8 -19 -14 -32 -14 -14 0
-25 -4 -25 -9 0 -4 -11 -20 -25 -35 -22 -24 -31 -26 -100 -26 -43 0 -75 4 -75
10 0 6 12 10 26 10 14 0 23 4 19 10 -10 16 -33 12 -55 -10 l-20 -20 32 -7 c32
-7 32 -7 -16 -14 -27 -4 -54 -13 -60 -20 -8 -9 -8 -10 2 -4 19 10 248 8 268
-3 14 -8 12 -10 -10 -14 -15 -3 -29 -2 -31 3 -8 11 -189 2 -193 -11 -2 -5 -10
-10 -17 -10 -8 0 -16 -4 -19 -8 -2 -4 28 -8 67 -8 40 0 70 -4 67 -8 -3 -5 -33
-8 -67 -7 -40 2 -63 -2 -63 -8 0 -6 -7 -11 -15 -11 -8 0 -15 4 -15 9 0 5 -9 7
-20 4 -11 -3 -20 0 -20 6 0 6 -7 11 -15 11 -25 0 -17 -19 11 -26 19 -5 23 -9
12 -15 -8 -6 2 -9 29 -7 23 1 45 -1 49 -5 10 -10 -39 -26 -51 -16 -19 14 -99
24 -91 11 4 -7 3 -12 -3 -12 -5 0 -13 5 -16 10 -3 6 -12 10 -18 10 -7 0 -6 -4
3 -10 25 -16 -14 -13 -56 5 -19 8 -32 10 -29 5 3 -4 0 -10 -7 -13 -7 -2 -2 -2
10 0 16 3 23 0 20 -9 -3 -7 -28 -16 -57 -21 -49 -7 -56 -5 -91 23 -21 17 -45
28 -53 24 -8 -3 -18 0 -22 5 -3 6 -11 9 -16 5 -18 -11 2 -24 39 -25 32 0 34
-1 15 -9 -34 -14 -28 -19 15 -14 36 4 36 4 7 -6 -39 -13 -145 -5 -157 12 -7
10 -11 10 -15 1 -3 -9 -10 -10 -24 -3 -12 7 -19 7 -19 1 0 -5 -6 -11 -12 -14
-7 -2 -5 -3 5 -2 9 2 17 0 17 -5 0 -13 -162 -22 -193 -11 -34 13 -35 25 -1 17
14 -4 23 -3 21 1 -3 4 17 7 44 6 27 0 46 3 43 8 -3 5 -38 8 -79 6 -41 -2 -72
0 -69 5 3 4 -4 8 -15 8 -12 0 -21 -5 -21 -11 0 -7 -14 -9 -38 -5 -21 2 -44 1
-51 -3 -9 -6 4 -11 38 -16 57 -8 68 -24 19 -27 -49 -3 -113 -7 -211 -14 -62
-4 -92 -3 -100 6 -9 8 -8 14 6 21 9 6 17 15 17 20 0 6 -7 3 -17 -6 -15 -15
-19 -14 -54 27 -42 47 -49 64 -21 49 10 -5 51 -12 92 -15 l75 -6 -59 15 c-33
8 -67 13 -77 10 -9 -3 -20 -1 -24 5 -3 5 -14 10 -23 10 -10 0 -68 51 -131 114
l-113 113 48 11 c27 6 128 13 224 16 182 6 561 21 785 32 72 3 224 8 339 10
115 2 212 6 214 9 9 9 242 5 242 -4z m60 -41 c0 -5 -8 -10 -17 -11 -15 0 -15
-2 2 -9 18 -8 17 -9 -6 -9 -15 -1 -42 -4 -60 -7 -24 -4 -30 -3 -20 4 11 8 4
13 -30 20 -43 9 -42 9 29 9 40 1 76 3 79 7 10 9 23 7 23 -4z m60 0 c8 -5 11
-10 5 -11 -5 0 -1 -4 10 -9 19 -8 19 -9 -2 -9 -14 -1 -23 5 -23 13 0 8 -6 17
-12 19 -7 3 -8 6 -3 6 6 0 17 -4 25 -9z m358 -6 c12 -4 22 -10 22 -13 0 -10
-59 -1 -66 10 -6 10 11 11 44 3z m319 0 c-3 -3 -12 -4 -19 -1 -8 3 -5 6 6 6
11 1 17 -2 13 -5z m-100 -10 c-3 -3 -12 -4 -19 -1 -8 3 -5 6 6 6 11 1 17 -2
13 -5z m-770 -10 c-3 -3 -12 -4 -19 -1 -8 3 -5 6 6 6 11 1 17 -2 13 -5z m1168
-12 c-3 -3 -11 0 -18 7 -9 10 -8 11 6 5 10 -3 15 -9 12 -12z m-2943 -122 c-1
-6 2 -9 7 -6 12 8 196 -190 195 -209 -1 -8 3 -13 8 -12 6 1 12 -3 15 -9 2 -7
-35 -13 -114 -18 -65 -3 -153 -9 -197 -13 l-78 -6 6 49 c3 27 8 81 11 119 4
39 10 102 15 140 5 39 10 74 10 79 0 5 28 -16 63 -47 34 -31 61 -61 59 -67z
m2631 113 c-7 -2 -19 -2 -25 0 -7 3 -2 5 12 5 14 0 19 -2 13 -5z m-658 -13
c-4 -6 -11 -7 -17 -4 -7 5 -8 2 -4 -5 5 -7 1 -20 -7 -29 -8 -9 -21 -30 -29
-46 -12 -23 -23 -29 -57 -32 -27 -3 -40 0 -36 6 3 5 19 10 34 10 16 0 34 7 41
15 10 12 10 15 0 15 -8 0 -10 3 -6 8 4 4 13 7 19 7 5 0 12 5 14 11 2 6 -7 10
-19 10 -26 -1 -49 -27 -30 -34 27 -9 10 -24 -23 -20 -19 2 -35 0 -35 -4 0 -4
-9 -8 -20 -8 -30 0 -24 19 8 26 54 12 58 14 42 24 -13 8 -12 10 3 10 10 0 15
5 12 10 -3 6 5 10 19 10 18 0 24 4 20 15 -5 12 3 15 36 15 25 0 39 -4 35 -10z
m-2995 -9 c0 -8 -81 -102 -120 -141 -3 -3 -29 -33 -58 -67 -37 -44 -58 -60
-70 -57 -13 5 -14 3 -4 -4 10 -7 -3 -27 -54 -83 -37 -41 -71 -75 -75 -77 -14
-6 -154 149 -151 166 2 12 0 14 -6 4 -6 -9 -39 18 -120 96 -62 60 -112 114
-112 120 0 13 87 20 430 37 354 17 340 16 340 6z m478 -61 c13 -69 6 -130 -14
-130 -11 0 -14 21 -14 95 0 52 4 95 9 95 5 0 14 -27 19 -60z m3142 40 c11 -7
1 -9 -35 -9 -40 1 -45 3 -25 9 35 11 43 11 60 0z m-4402 -136 c95 -94 114
-117 102 -125 -12 -9 -12 -10 3 -5 24 8 173 -136 161 -156 -6 -9 -9 -9 -12 0
-2 7 -8 12 -13 12 -6 0 -7 -4 -4 -10 4 -6 -12 -10 -42 -10 -26 0 -75 -4 -108
-9 -33 -5 -121 -13 -195 -16 -74 -4 -138 -9 -143 -12 -4 -2 -20 -2 -36 2 -26
6 -29 11 -33 53 -5 54 0 84 13 76 5 -3 9 0 9 5 0 6 -4 11 -10 11 -5 0 -10 11
-10 24 0 13 -3 31 -6 40 -11 29 -24 17 -24 -22 0 -21 -3 -42 -7 -46 -4 -4 -7
-19 -8 -33 0 -20 -7 -29 -25 -34 l-25 -7 28 -1 c23 -1 27 -5 27 -31 0 -39 -17
-45 -137 -55 -108 -8 -101 -16 -104 128 -2 53 -7 97 -11 97 -5 0 -8 -49 -6
-110 2 -64 -1 -113 -7 -118 -10 -10 -185 -31 -315 -38 -41 -3 -129 -9 -195
-13 -66 -5 -122 -7 -124 -5 -5 4 92 117 161 189 26 27 50 57 54 67 3 10 11 18
19 18 7 0 15 10 18 22 4 12 9 19 13 15 4 -3 46 34 94 83 l87 90 59 0 c33 0 65
5 70 10 15 15 64 -5 65 -27 1 -10 0 -50 -1 -89 -1 -43 3 -74 9 -78 8 -5 11 23
11 91 0 54 4 103 8 108 9 14 232 18 232 5 0 -10 -15 -14 -34 -11 -5 1 -3 -5 4
-14 11 -13 15 -13 21 -3 6 8 9 0 9 -22 0 -60 12 -140 21 -140 5 0 10 44 11 98
l3 97 45 6 c25 3 71 7 103 7 l58 2 117 -116z m3842 81 c13 8 61 -6 55 -15 -10
-16 34 -21 117 -15 59 5 79 3 68 -4 -22 -16 -197 -14 -203 2 -3 7 -6 5 -6 -5
-1 -13 -9 -18 -32 -18 -24 0 -30 4 -25 15 8 22 -3 18 -26 -7 -22 -26 -14 -7
16 36 11 16 22 24 24 18 2 -7 8 -10 12 -7z m445 -5 c-3 -5 -16 -10 -28 -9 -21
0 -21 1 -2 9 28 12 37 12 30 0z m-5245 -31 c0 -5 -20 -31 -45 -59 -24 -27 -49
-59 -55 -70 -6 -11 -16 -20 -22 -20 -6 0 -70 -61 -142 -137 -153 -159 -167
-173 -177 -173 -10 0 -409 391 -409 400 0 4 73 13 162 19 90 7 208 16 263 22
55 5 160 14 234 19 74 5 136 11 138 13 7 7 53 -5 53 -14z m5280 7 c0 -9 -30
-14 -35 -6 -4 6 3 10 14 10 12 0 21 -2 21 -4z m187 -2 c-3 -3 -12 -4 -19 -1
-8 3 -5 6 6 6 11 1 17 -2 13 -5z m-3693 -266 l6 -36 -83 -6 c-188 -14 -207
-14 -207 -4 0 18 122 148 133 141 6 -3 7 -1 3 6 -5 7 20 42 61 88 l68 76 7
-114 c3 -63 9 -130 12 -151z m2783 256 c-3 -3 -12 -4 -19 -1 -8 3 -5 6 6 6 11
1 17 -2 13 -5z m858 -4 c-3 -5 -16 -10 -28 -10 -22 -1 -22 -1 -3 -15 20 -15
20 -15 0 -16 -10 -1 -29 0 -41 1 -22 1 -28 -8 -24 -37 1 -7 -6 -16 -16 -21
-25 -13 -250 -25 -257 -13 -3 5 3 11 14 14 11 3 20 1 20 -4 0 -10 60 0 74 12
5 4 18 4 30 0 11 -4 37 -6 56 -5 19 1 43 3 53 3 9 1 17 5 17 11 0 5 -15 7 -32
5 -24 -4 -28 -3 -13 3 16 7 11 10 -24 16 -24 4 -40 10 -36 14 9 9 75 9 75 0 0
-5 7 -8 16 -8 13 0 14 3 5 14 -12 14 -1 21 64 36 45 11 57 11 50 0z m460 0 c3
-6 -1 -7 -9 -4 -18 7 -21 14 -7 14 6 0 13 -4 16 -10z m-805 -4 c0 -2 -13 -9
-30 -15 -35 -12 -41 -5 -7 9 25 10 37 12 37 6z m-438 -28 c-7 -7 -12 -8 -12
-2 0 14 12 26 19 19 2 -3 -1 -11 -7 -17z m348 3 c0 -5 10 -12 23 -14 14 -3 8
-5 -15 -6 -25 -1 -41 -7 -47 -20 -11 -20 -55 -33 -68 -20 -4 4 -21 15 -38 24
l-30 17 30 -7 c90 -19 93 -19 86 19 -1 4 10 5 24 2 17 -4 24 -3 20 4 -3 5 -1
10 4 10 6 0 11 -4 11 -9z m165 -1 c3 -5 -1 -10 -10 -10 -9 0 -13 5 -10 10 3 6
8 10 10 10 2 0 7 -4 10 -10z m-702 -17 c-7 -2 -19 -2 -25 0 -7 3 -2 5 12 5 14
0 19 -2 13 -5z m731 -12 c-9 -10 -51 -15 -93 -13 -43 3 -10 21 44 24 56 3 63
2 49 -11z m-563 -8 c-9 -18 -19 -19 -128 -15 -24 1 -43 7 -43 12 0 13 150 8
150 -5 0 -5 5 -2 11 8 5 9 12 17 15 17 3 0 0 -8 -5 -17z m129 7 c-20 -13 -43
-13 -35 0 3 6 16 10 28 10 18 0 19 -2 7 -10z m923 3 c-7 -2 -21 -2 -30 0 -10
3 -4 5 12 5 17 0 24 -2 18 -5z m94 1 c-3 -3 -12 -4 -19 -1 -8 3 -5 6 6 6 11 1
17 -2 13 -5z m-520 -20 c-3 -3 -12 -4 -19 -1 -8 3 -5 6 6 6 11 1 17 -2 13 -5z
m222 -20 c2 -2 -14 -4 -37 -4 -30 0 -42 4 -42 14 0 12 7 12 38 4 20 -5 39 -12
41 -14z m-3243 -74 c0 -62 -3 -91 -12 -94 -17 -6 -23 33 -13 91 4 26 5 58 2
71 -3 14 -1 22 8 22 11 0 14 -21 15 -90z m2560 79 c-15 -9 -16 -13 -5 -20 20
-12 29 -11 27 4 -2 6 4 10 12 8 8 -2 60 -3 114 -2 55 0 96 -2 92 -7 -8 -8 -12
-8 -204 -19 -74 -5 -135 -6 -137 -3 -2 3 1 12 6 20 8 12 12 12 16 3 6 -15 33
-17 33 -3 0 6 -6 11 -12 11 -14 1 38 16 62 18 11 0 10 -3 -4 -10z m-440 -6
c-15 -4 -16 -7 -5 -14 8 -5 9 -9 3 -9 -6 0 -17 7 -24 15 -11 13 -8 15 16 14
20 -1 23 -3 10 -6z m74 -18 c0 -9 -9 -15 -22 -14 -18 1 -19 2 -5 6 9 2 15 9
12 14 -4 5 -1 9 4 9 6 0 11 -7 11 -15z m166 -14 c-7 -11 -113 -22 -134 -13
-10 4 13 9 53 13 39 3 74 6 78 7 5 1 6 -2 3 -7z m799 -110 c-6 -5 -28 -12 -50
-15 l-40 -6 45 14 c57 18 56 18 45 7z m-345 -5 c0 -11 -19 -15 -25 -6 -3 5 1
10 9 10 9 0 16 -2 16 -4z m80 -6 c0 -5 -14 -10 -31 -10 -17 0 -28 4 -24 10 3
6 17 10 31 10 13 0 24 -4 24 -10z m77 4 c-3 -3 -12 -4 -19 -1 -8 3 -5 6 6 6
11 1 17 -2 13 -5z m383 -4 c0 -5 -4 -10 -10 -10 -5 0 -10 5 -10 10 0 6 5 10
10 10 6 0 10 -4 10 -10z m-740 -10 c0 -5 -5 -10 -11 -10 -5 0 -7 5 -4 10 3 6
8 10 11 10 2 0 4 -4 4 -10z m450 0 c0 -5 -7 -10 -16 -10 -8 0 -12 5 -9 10 3 6
10 10 16 10 5 0 9 -4 9 -10z m-620 -7 c-19 -3 -38 -10 -42 -16 -4 -6 -10 -8
-15 -4 -12 13 19 27 57 25 l35 -1 -35 -4z m256 -24 c16 -17 22 -28 12 -24 -9
4 -19 13 -22 22 -4 11 -15 13 -38 8 l-33 -6 25 14 c14 8 25 15 26 16 0 1 13
-13 30 -30z m-639 15 c25 -7 36 -49 17 -65 -11 -9 -14 -8 -14 0 0 7 -4 10 -9
7 -5 -4 -21 -2 -35 4 -19 7 -29 6 -40 -5 -8 -8 -24 -15 -35 -15 -11 0 -23 -4
-26 -10 -4 -6 14 -10 46 -10 78 0 52 -11 -29 -12 -69 -2 -71 -1 -121 41 -28
24 -50 45 -48 47 2 2 25 -3 52 -11 27 -8 52 -12 56 -10 4 3 13 -2 20 -11 11
-14 10 -16 -6 -14 -32 4 -47 1 -41 -9 8 -12 59 -1 72 15 6 7 24 20 39 28 27
14 25 15 -34 11 -33 -2 -61 0 -61 5 0 5 37 11 83 13 45 1 84 4 87 5 3 1 15 -1
27 -4z m231 -6 c-2 -6 -14 -13 -27 -15 -13 -2 -20 1 -16 7 3 5 0 8 -7 5 -7 -2
-35 -1 -63 4 -48 8 -47 9 33 10 59 1 83 -2 80 -11z m537 2 c3 -5 1 -10 -4 -10
-6 0 -11 5 -11 10 0 6 2 10 4 10 3 0 8 -4 11 -10z m355 -10 c0 -5 -7 -10 -16
-10 -8 0 -12 5 -9 10 3 6 10 10 16 10 5 0 9 -4 9 -10z m-1660 -16 c0 -3 -19
-27 -42 -54 -36 -41 -48 -49 -90 -54 -26 -4 -48 -11 -48 -17 0 -5 12 -7 28 -3
15 4 23 3 19 -2 -5 -5 -13 -10 -18 -10 -22 -3 -23 -5 -11 -12 7 -5 -9 -8 -40
-8 -29 1 -66 -2 -83 -6 l-30 -7 30 14 c17 8 39 14 51 15 11 0 21 7 21 15 0 19
-26 19 -46 1 -13 -12 -24 -12 -57 -4 -30 8 -53 8 -85 0 l-44 -11 57 3 c31 1
55 -1 52 -6 -3 -4 0 -8 6 -8 7 0 10 -7 6 -15 -3 -8 0 -16 7 -16 7 -1 -8 -5
-33 -10 -61 -11 -133 -1 -126 17 3 8 1 13 -5 11 -6 -1 -18 12 -27 28 -10 17
-27 44 -39 62 -13 17 -23 36 -23 41 0 6 41 13 93 16 406 26 477 29 477 20z
m617 0 c-3 -3 -12 -4 -19 -1 -8 3 -5 6 6 6 11 1 17 -2 13 -5z m253 -15 c0 -5
-7 -9 -15 -9 -15 0 -20 12 -9 23 8 8 24 -1 24 -14z m203 8 c3 -9 -8 -13 -38
-15 -30 -1 -45 3 -49 13 -4 12 4 15 38 15 27 0 46 -5 49 -13z m77 3 c-20 -13
-53 -13 -45 0 3 6 18 10 33 10 21 0 24 -2 12 -10z m196 -4 c3 -8 11 -14 17
-12 7 1 9 1 4 -1 -4 -3 -5 -9 -1 -14 10 -17 -2 -9 -26 16 -13 14 -18 25 -11
25 6 0 14 -6 17 -14z m-1247 -27 c-16 -18 -27 -34 -25 -36 3 -3 28 -2 56 2 28
4 50 9 48 11 -4 3 -42 12 -62 13 -15 1 3 15 23 18 10 1 30 -10 45 -26 16 -16
21 -28 14 -29 -19 -2 -141 -11 -151 -12 -5 0 -5 -4 -2 -10 3 -5 4 -10 1 -10
-2 0 -13 -3 -23 -7 -10 -4 6 21 35 55 30 34 58 62 62 62 4 0 -5 -14 -21 -31z
m1067 -4 c-14 -11 -16 -15 -5 -15 12 0 12 -2 -1 -10 -8 -5 -22 -10 -30 -10
-13 0 -13 1 0 10 12 7 10 11 -10 20 -23 10 -23 10 -3 6 13 -2 26 0 29 5 3 5
13 9 22 9 15 -1 15 -2 -2 -15z m-1840 -3 c13 -8 98 -138 107 -164 7 -21 -1
-24 -118 -39 -134 -17 -155 -21 -161 -30 -3 -5 14 -9 38 -10 38 0 40 -1 19
-10 -14 -5 -30 -8 -36 -5 -6 2 -22 -2 -36 -10 -28 -16 -10 -18 41 -5 55 14
310 24 310 12 0 -6 -19 -8 -47 -6 -32 3 -43 1 -33 -5 8 -6 33 -10 55 -11 22 0
33 -3 25 -6 -45 -15 -46 -15 -25 -23 11 -4 25 -3 32 2 14 11 50 -49 36 -62 -4
-5 -98 -14 -208 -20 -110 -6 -240 -15 -290 -20 -117 -12 -118 -12 -112 4 3 7
1 18 -5 24 -18 18 17 26 53 13 18 -6 41 -11 53 -10 27 1 -71 29 -104 29 -20 0
-22 2 -10 10 11 7 7 10 -18 10 -20 0 -35 6 -39 15 -7 20 -5 21 37 29 26 5 31
4 20 -3 -25 -18 114 -18 154 0 14 6 2 8 -39 4 -45 -4 -54 -2 -37 5 13 5 20 14
17 20 -3 5 0 10 7 10 9 0 9 3 -2 10 -8 5 -33 10 -55 10 -26 0 -35 -3 -27 -9
10 -6 5 -11 -19 -20 -48 -16 -58 -14 -51 11 6 24 18 39 130 162 l74 81 66 6
c105 9 186 9 198 1z m1203 -8 c2 -2 -10 -4 -27 -4 -18 0 -32 5 -32 10 0 9 47
4 59 -6z m76 6 c8 -13 -5 -13 -25 0 -13 8 -13 10 2 10 9 0 20 -4 23 -10z m228
-10 c-4 -16 0 -20 23 -21 26 -2 26 -2 5 -6 -28 -6 -46 10 -38 31 9 23 16 20
10 -4z m415 -5 c-3 -3 -9 2 -12 12 -6 14 -5 15 5 6 7 -7 10 -15 7 -18z m-245
8 c-7 -2 -19 -2 -25 0 -7 3 -2 5 12 5 14 0 19 -2 13 -5z m-2063 -10 c-1 -5
-24 -30 -52 -58 -28 -27 -48 -42 -44 -32 3 10 6 36 6 58 l0 39 45 0 c25 0 45
-3 45 -7z m1721 -11 c-7 -2 -18 1 -23 6 -8 8 -4 9 13 5 13 -4 18 -8 10 -11z
m-21 -12 c12 -1 11 -3 -2 -11 -20 -11 -28 -12 -27 -2 0 4 -8 11 -18 15 -13 6
-11 7 7 3 14 -2 32 -5 40 -5z m413 -7 c-7 -2 -19 -2 -25 0 -7 3 -2 5 12 5 14
0 19 -2 13 -5z m129 -5 c-8 -8 -18 -8 -34 -1 -21 9 -20 10 11 11 25 0 31 -2
23 -10z m128 -10 c0 -6 -6 -5 -15 2 -8 7 -15 14 -15 16 0 2 7 1 15 -2 8 -4 15
-11 15 -16z m-317 0 c-2 -5 -10 -8 -18 -8 -8 0 -16 3 -18 8 -3 4 5 7 18 7 13
0 21 -3 18 -7z m-2960 -26 c10 -11 19 -44 23 -78 3 -32 10 -75 16 -94 6 -19
12 -79 12 -133 l1 -99 -40 5 c-22 3 -52 8 -66 12 -18 5 -31 2 -43 -10 -12 -13
-26 -15 -51 -11 -19 4 -35 3 -35 -2 0 -5 -12 -9 -27 -10 -45 -1 -511 -50 -595
-63 -42 -6 -131 -12 -197 -14 -117 -3 -121 -2 -123 19 -1 11 -3 62 -5 111 -2
50 -4 100 -4 113 -2 41 8 52 53 54 l43 1 -50 7 -50 6 53 8 c28 5 52 12 52 16
0 4 43 6 95 4 58 -2 93 1 90 6 -4 6 11 8 37 4 49 -6 83 9 58 26 -11 7 -2 10
35 11 l50 1 -40 10 c-22 5 -71 7 -110 5 -72 -4 -211 -32 -230 -46 -5 -5 -27
-11 -47 -15 -34 -6 -38 -5 -38 14 0 16 6 20 34 20 19 0 37 4 40 9 3 5 27 12
52 16 83 12 96 26 20 20 -48 -3 -73 -9 -78 -20 -5 -8 -21 -14 -36 -14 l-27 1
30 8 c20 5 24 8 10 9 -41 3 -44 17 -4 18 23 1 51 8 63 16 23 15 341 41 651 52
91 3 95 3 40 -6 -33 -5 -83 -17 -112 -26 -40 -12 -77 -15 -164 -11 -65 3 -106
2 -98 -3 8 -5 24 -9 36 -9 12 0 28 -7 36 -15 11 -11 40 -14 118 -14 89 1 107
4 122 20 15 16 33 19 100 20 52 0 75 3 62 9 -18 7 -16 8 10 12 27 5 26 5 -8 7
-23 0 -36 5 -32 11 4 6 21 8 38 5 18 -3 52 1 77 9 65 21 133 20 153 -2z m480
-108 c-3 -31 -1 -54 5 -58 7 -4 5 -19 -5 -46 -14 -34 -19 -39 -44 -36 -32 3
-99 58 -99 81 0 9 4 25 10 35 5 10 13 43 18 72 7 53 7 53 47 58 36 5 41 2 57
-25 11 -21 15 -44 11 -81z m1730 101 c9 -22 -51 -30 -87 -11 l-29 15 49 4 c27
2 52 4 55 5 4 1 9 -5 12 -13z m297 -1 c-19 -8 -43 -13 -54 -10 -11 3 -27 1
-37 -5 -10 -5 -20 -5 -23 -1 -3 5 0 9 7 10 7 1 35 6 62 11 75 13 84 12 45 -5z
m343 9 c-13 -2 -33 -2 -45 0 -13 2 -3 4 22 4 25 0 35 -2 23 -4z m654 -16 c0
-8 -9 -12 -21 -11 -32 4 -33 5 -6 14 14 4 25 8 26 9 0 1 1 -5 1 -12z m-1232
-17 c10 -11 16 -20 13 -20 -3 0 -13 9 -23 20 -10 11 -16 20 -13 20 3 0 13 -9
23 -20z m370 10 c-3 -5 -14 -10 -23 -9 -14 0 -13 2 3 9 27 11 27 11 20 0z
m245 0 c0 -5 -5 -10 -11 -10 -5 0 -7 5 -4 10 3 6 8 10 11 10 2 0 4 -4 4 -10z
m199 6 c-2 -2 -29 -6 -59 -9 -36 -4 -46 -3 -30 3 25 8 97 13 89 6z m144 -3
c-7 -2 -19 -2 -25 0 -7 3 -2 5 12 5 14 0 19 -2 13 -5z m-393 -23 c-8 -6 -26
-10 -40 -10 -19 0 -21 3 -11 9 8 5 20 7 27 4 6 -2 15 1 19 7 4 6 10 9 13 5 4
-3 0 -10 -8 -15z m-3133 4 c-3 -3 -12 -4 -19 -1 -8 3 -5 6 6 6 11 1 17 -2 13
-5z m3430 0 c-3 -3 -12 -4 -19 -1 -8 3 -5 6 6 6 11 1 17 -2 13 -5z m-577 -13
c0 -5 -20 -9 -45 -9 -25 1 -45 5 -45 10 0 4 20 8 45 8 25 0 45 -4 45 -9z m90
-1 c0 -5 -2 -10 -4 -10 -3 0 -8 5 -11 10 -3 6 -1 10 4 10 6 0 11 -4 11 -10z
m714 2 c3 -5 -1 -9 -9 -9 -8 0 -15 4 -15 9 0 4 4 8 9 8 6 0 12 -4 15 -8z
m-4451 -9 c-7 -2 -19 -2 -25 0 -7 3 -2 5 12 5 14 0 19 -2 13 -5z m3207 -3 c0
-17 -30 -31 -52 -25 -18 5 -20 4 -8 -5 12 -8 7 -10 -20 -8 -19 2 -34 8 -33 14
1 7 -17 9 -54 6 -36 -3 -54 -1 -50 5 4 6 17 8 29 6 13 -2 34 0 48 5 30 12 140
13 140 2z m-355 -10 c-11 -5 -29 -9 -40 -9 l-20 0 20 9 c11 5 29 9 40 9 l20 0
-20 -9z m867 2 c11 -5 14 -12 9 -21 -7 -10 -13 -11 -29 -2 -11 6 -27 11 -34
10 -10 0 -10 -2 0 -6 27 -11 9 -22 -30 -19 l-43 4 30 -14 c36 -16 65 -18 65
-4 0 6 5 10 10 10 16 0 12 -21 -7 -37 -17 -14 -17 -14 0 -9 9 3 17 2 17 -3 0
-17 -12 -19 -38 -5 -15 8 -31 14 -37 14 -9 0 -75 57 -75 64 0 2 10 3 23 2 12
-1 42 4 67 10 54 15 51 14 72 6z m-869 -47 c-24 -29 -39 -41 -44 -33 -4 7 -42
14 -86 18 -62 4 -72 7 -49 13 15 4 58 5 95 2 62 -7 67 -5 90 19 39 41 35 30
-6 -19z m1387 35 c0 -5 -4 -10 -10 -10 -5 0 -10 5 -10 10 0 6 5 10 10 10 6 0
10 -4 10 -10z m-1578 -22 c-12 -12 -54 -7 -59 8 -2 6 10 8 33 6 23 -3 32 -8
26 -14z m708 12 c0 -5 -7 -10 -16 -10 -8 0 -12 5 -9 10 3 6 10 10 16 10 5 0 9
-4 9 -10z m-296 -12 c-5 -8 11 -10 62 -5 38 3 78 9 89 13 16 6 18 5 8 -7 -20
-20 -16 -26 17 -21 16 2 27 8 24 13 -3 5 14 6 38 3 24 -3 61 -1 83 4 37 8 43
6 82 -26 24 -19 40 -38 37 -43 -3 -5 1 -9 9 -9 20 0 51 -36 38 -45 -6 -3 -11
1 -11 9 0 9 -9 16 -20 16 -11 0 -23 7 -26 15 -4 8 -10 15 -16 15 -5 0 -7 -4
-4 -8 6 -10 -42 -14 -58 -5 -6 4 -17 8 -23 8 -7 0 -12 5 -10 10 1 6 5 9 10 8
4 -2 7 4 7 12 0 8 -4 15 -10 15 -5 0 -10 -5 -10 -10 0 -6 -10 -15 -22 -20 -19
-7 -19 -9 -5 -9 10 -1 15 -5 12 -11 -3 -5 2 -10 11 -10 36 0 3 -13 -42 -16
-25 -2 -60 -10 -76 -19 -17 -8 -34 -12 -39 -9 -16 10 -9 34 10 34 10 0 24 6
30 14 9 11 5 15 -26 18 -21 3 -43 1 -49 -3 -6 -5 -40 -11 -75 -14 -41 -3 -53
-2 -34 3 29 8 29 8 8 16 -13 4 -32 4 -43 1 -11 -3 -20 -2 -20 4 0 15 -42 9
-75 -12 l-30 -19 45 6 c31 3 39 2 25 -4 -11 -5 -15 -9 -10 -9 6 -1 3 -6 -5
-11 -13 -8 -13 -10 2 -10 26 0 48 11 42 21 -3 5 2 9 10 9 32 0 23 -18 -14 -30
-34 -11 -38 -15 -28 -28 11 -13 4 -14 -54 -8 -43 5 -74 4 -87 -4 -33 -17 -25
-2 42 76 49 58 70 74 102 82 58 14 88 14 79 0z m803 6 c-3 -3 -12 -4 -19 -1
-8 3 -5 6 6 6 11 1 17 -2 13 -5z m-1356 -21 c8 -8 2 -13 -21 -18 -19 -4 -36
-3 -43 4 -8 8 -5 11 12 11 12 0 20 4 17 9 -8 13 22 7 35 -6z m119 -13 c0 -5
-2 -10 -4 -10 -3 0 -8 5 -11 10 -3 6 -1 10 4 10 6 0 11 -4 11 -10z m1170 -15
c0 -8 -4 -15 -10 -15 -5 0 -7 7 -4 15 4 8 8 15 10 15 2 0 4 -7 4 -15z m220 4
c0 -4 8 -10 18 -13 9 -2 -1 -2 -23 1 -50 7 -69 22 -26 21 17 -1 31 -5 31 -9z
m-1305 -15 c13 -5 14 -8 3 -15 -9 -6 -3 -9 18 -9 16 0 35 5 42 12 7 7 12 8 12
2 0 -5 -24 -33 -53 -62 l-53 -52 -27 55 c-29 60 -32 69 -18 60 5 -3 12 -1 16
5 7 11 35 13 60 4z m1138 -1 c-7 -2 -21 -2 -30 0 -10 3 -4 5 12 5 17 0 24 -2
18 -5z m246 -7 c8 -9 8 -16 2 -20 -6 -4 -15 3 -21 14 -12 23 2 27 19 6z m-244
-26 c-30 -13 42 -13 103 1 34 7 61 7 83 0 34 -10 33 -10 -16 -10 -27 0 -90 -4
-140 -9 -90 -8 -119 -6 -76 5 17 4 19 8 9 14 -8 6 -1 9 22 8 29 0 31 -2 15 -9z
m-748 -26 c-3 -3 -12 -4 -19 -1 -8 3 -5 6 6 6 11 1 17 -2 13 -5z m90 0 c-3 -3
-12 -4 -19 -1 -8 3 -5 6 6 6 11 1 17 -2 13 -5z m236 -5 c-5 -5 -27 -12 -49
-16 -36 -5 -37 -4 -20 9 21 17 85 23 69 7z m-108 -9 c-3 -5 -21 -10 -38 -9
-27 0 -29 2 -12 9 28 12 57 12 50 0z m-131 -9 c3 -5 -4 -9 -17 -8 -12 0 -58
-3 -102 -7 -45 -5 -76 -5 -72 0 5 5 36 12 70 15 99 10 115 10 121 0z m-1644
-41 c0 -11 -2 -20 -3 -20 -2 0 -12 9 -22 20 -18 19 -17 20 3 20 15 0 22 -6 22
-20z m337 -12 c-3 -8 -6 -5 -6 6 -1 11 2 17 5 13 3 -3 4 -12 1 -19z m-442 -28
c3 -5 -1 -10 -9 -10 -9 0 -16 5 -16 10 0 6 4 10 9 10 6 0 13 -4 16 -10z m2905
0 c-14 -4 -34 -8 -45 -9 -16 -1 -17 1 -5 9 8 5 29 9 45 9 29 -1 29 -1 5 -9z
m-2450 -10 c0 -5 -4 -10 -10 -10 -5 0 -10 5 -10 10 0 6 5 10 10 10 6 0 10 -4
10 -10z m2283 3 c-7 -2 -21 -2 -30 0 -10 3 -4 5 12 5 17 0 24 -2 18 -5z m80 0
c-13 -2 -33 -2 -45 0 -13 2 -3 4 22 4 25 0 35 -2 23 -4z m-293 -13 c0 -5 -4
-10 -10 -10 -5 0 -10 5 -10 10 0 6 5 10 10 10 6 0 10 -4 10 -10z m93 3 c-7 -2
-19 -2 -25 0 -7 3 -2 5 12 5 14 0 19 -2 13 -5z m-204 -13 c37 0 42 -2 31 -15
-14 -17 -65 -21 -55 -5 4 6 -6 10 -24 10 -16 0 -33 5 -37 12 -5 8 0 9 17 5 13
-4 44 -7 68 -7z m-2409 -16 c0 -2 -7 -4 -15 -4 -8 0 -15 4 -15 10 0 5 7 7 15
4 8 -4 15 -8 15 -10z m2264 6 c-6 -6 -21 -6 -39 -1 -30 9 -30 9 10 10 25 1 36
-2 29 -9z m-478 -21 c-15 -9 -16 -13 -5 -21 16 -10 -79 0 -96 11 -11 6 41 18
90 19 26 1 28 0 11 -9z m147 -9 c4 -17 0 -20 -26 -19 -18 0 -26 3 -19 6 25 10
11 22 -30 26 -38 3 -37 4 13 5 49 2 57 -1 62 -18z m1007 10 c0 -5 -4 -10 -10
-10 -5 0 -10 5 -10 10 0 6 5 10 10 10 6 0 10 -4 10 -10z m-1336 -15 c-11 -8
-14 -15 -6 -15 6 0 12 -4 12 -10 0 -15 -47 -12 -81 5 -16 9 -34 13 -40 9 -6
-3 -22 -2 -37 2 -22 7 -12 10 48 14 139 11 127 12 104 -5z m641 8 c-11 -3 -22
-8 -25 -12 -3 -3 -23 -14 -44 -24 -30 -14 -41 -15 -50 -6 -8 9 -8 10 1 5 7 -4
32 4 55 18 24 14 52 25 63 25 l20 -1 -20 -5z m-399 -21 c-14 -3 -16 -6 -6 -12
9 -6 4 -13 -18 -24 -17 -9 -34 -21 -38 -27 -5 -8 -3 -9 7 -4 25 16 79 17 79 1
0 -19 -65 -25 -109 -10 -20 7 -40 9 -46 5 -5 -4 -21 -4 -35 0 -14 4 -20 8 -15
8 6 1 4 5 -4 10 -11 7 -8 9 10 10 13 0 42 2 64 4 22 3 46 5 54 6 8 1 12 4 8 7
-10 11 36 42 53 36 12 -5 11 -7 -4 -10z m147 11 c-7 -2 -21 -2 -30 0 -10 3 -4
5 12 5 17 0 24 -2 18 -5z m-589 -18 c8 -8 23 -15 33 -15 14 0 12 -4 -9 -18
-16 -9 -28 -20 -28 -24 0 -5 -15 -8 -32 -8 -30 1 -32 2 -15 15 17 12 15 14
-28 21 -31 4 -50 3 -58 -5 -9 -9 -4 -11 22 -9 19 2 36 -2 38 -9 5 -14 -46 -26
-114 -25 -29 0 -51 -3 -48 -8 3 -5 -1 -11 -7 -14 -7 -3 -2 -3 10 0 34 8 124
15 227 16 50 0 75 2 58 5 -33 4 -48 33 -18 33 8 0 15 -4 15 -10 0 -5 10 -10
21 -10 18 0 19 3 9 15 -10 12 -9 16 5 21 9 4 20 2 24 -3 3 -6 34 -13 69 -16
47 -4 68 -11 81 -26 10 -12 30 -21 46 -21 l27 0 -38 -35 c-22 -19 -47 -35 -56
-35 -10 0 -15 -5 -12 -13 3 -8 -11 -20 -36 -31 -22 -9 -40 -21 -40 -26 0 -4
-19 -11 -42 -15 -58 -10 -77 -20 -49 -28 11 -3 24 -1 27 4 8 14 34 11 50 -6
14 -13 13 -15 -3 -17 -10 0 -26 0 -36 0 -16 2 -17 0 -3 -13 13 -14 25 -14 108
-1 51 8 102 17 113 20 69 18 70 18 55 7 -9 -7 -11 -11 -3 -11 7 0 16 7 20 15
7 12 20 14 57 9 30 -4 43 -10 35 -15 -8 -4 -10 -11 -7 -14 8 -8 45 16 46 30 1
13 22 19 22 7 0 -6 -7 -18 -16 -26 -16 -17 -13 -19 21 -17 l20 1 -20 -9 c-32
-15 -75 -13 -81 4 -8 19 -67 20 -83 1 -16 -19 -90 -29 -107 -15 -11 9 -21 9
-37 1 -12 -6 -56 -13 -97 -16 -41 -3 -86 -7 -100 -10 -57 -13 -210 -19 -210
-8 0 6 6 13 13 15 21 9 -97 -1 -120 -10 -12 -4 -21 -12 -20 -18 1 -6 -34 -11
-85 -13 -83 -3 -88 -2 -88 18 0 13 7 20 20 20 11 0 20 3 20 8 0 4 -28 6 -62 5
-35 -1 -57 0 -50 3 6 3 12 10 12 16 0 12 -52 1 -60 -13 -4 -5 -28 -12 -56 -15
-64 -9 -51 4 33 32 46 15 71 20 79 13 14 -11 147 10 180 29 16 9 12 10 -18 5
-21 -3 -43 -1 -51 5 -13 11 -47 16 -82 13 -16 -1 -17 -3 -6 -10 10 -7 8 -9
-10 -9 -13 0 -51 -8 -84 -17 -49 -14 -66 -15 -92 -6 -23 9 -38 9 -52 2 -10 -6
-45 -14 -77 -17 -35 -4 -67 -14 -79 -24 -11 -10 -31 -20 -45 -23 -14 -3 1 -4
33 -2 31 1 57 -1 57 -6 0 -4 -38 -9 -85 -11 -72 -2 -85 -1 -83 12 2 8 9 16 16
16 6 1 15 3 20 4 15 5 28 7 51 8 33 3 19 14 -26 21 -34 6 -38 10 -41 39 -3 32
10 43 24 20 4 -7 3 -8 -4 -4 -7 4 -12 2 -12 -3 0 -6 7 -11 15 -11 7 0 18 -6
22 -14 13 -22 54 -40 63 -27 3 6 31 14 61 18 57 6 106 25 59 22 -40 -2 -48 0
-54 17 -5 12 -2 15 10 10 8 -3 37 3 62 13 84 34 116 45 132 46 8 1 30 2 48 3
17 1 32 7 32 13 0 12 -92 9 -101 -4 -3 -5 -39 -10 -80 -12 -72 -4 -73 -3 -40
11 18 8 52 14 75 14 30 0 37 3 26 10 -24 16 -108 12 -136 -6 -20 -14 -29 -14
-47 -5 -12 6 -14 9 -5 7 19 -6 35 10 16 16 -7 3 -9 14 -5 30 5 18 21 32 52 47
46 22 83 29 55 11 -12 -8 -10 -10 8 -10 41 0 13 -19 -39 -26 -27 -4 -52 -11
-55 -15 -10 -16 41 -9 111 17 78 28 181 42 148 20 -10 -7 -31 -17 -48 -21 -21
-6 -25 -9 -13 -12 10 -3 31 2 48 10 16 9 43 18 60 22 25 5 28 9 16 20 -7 7
-26 15 -42 17 -31 4 357 34 468 37 47 1 71 -3 82 -14z m1766 5 c0 -5 -4 -10
-9 -10 -6 0 -13 5 -16 10 -3 6 1 10 9 10 9 0 16 -4 16 -10z m-723 -16 c-3 -3
-12 -4 -19 -1 -8 3 -5 6 6 6 11 1 17 -2 13 -5z m698 -24 c3 -5 1 -10 -4 -10
-6 0 -11 5 -11 10 0 6 2 10 4 10 3 0 8 -4 11 -10z m-1180 -10 c3 -6 -4 -10
-17 -10 -18 0 -20 2 -8 10 19 12 18 12 25 0z m212 4 c-12 -12 -49 -19 -82 -15
-19 2 -19 3 -1 10 25 10 92 14 83 5z m898 -4 c3 -5 1 -10 -4 -10 -6 0 -11 5
-11 10 0 6 2 10 4 10 3 0 8 -4 11 -10z m-420 -18 c-3 -3 -11 0 -18 7 -9 10 -8
11 6 5 10 -3 15 -9 12 -12z m202 12 c-3 -3 -12 -4 -19 -1 -8 3 -5 6 6 6 11 1
17 -2 13 -5z m-782 -39 c-26 -7 -36 -13 -27 -18 37 -23 -7 -36 -52 -16 -32 15
-23 31 12 23 21 -4 24 -3 12 5 -13 9 -12 11 5 12 11 1 26 2 33 2 6 -1 12 3 12
7 0 5 10 6 22 2 19 -5 16 -7 -17 -17z m-1975 -29 c0 -50 -1 -51 -52 -60 -35
-6 -37 -5 -43 26 -4 18 -9 41 -11 50 -5 17 13 23 79 27 26 1 27 -1 27 -43z
m1887 38 c-3 -3 -12 -4 -19 -1 -8 3 -5 6 6 6 11 1 17 -2 13 -5z m1278 -14 c3
-5 1 -10 -4 -10 -6 0 -11 5 -11 10 0 6 2 10 4 10 3 0 8 -4 11 -10z m-536 -14
c9 -11 6 -12 -14 -8 -14 2 -22 8 -19 13 8 13 20 11 33 -5z m-3039 -5 c0 -5 -8
-12 -17 -14 -14 -4 -12 -5 5 -6 19 -1 22 -7 24 -51 0 -27 1 -56 2 -62 1 -13
-17 -20 -99 -37 -128 -26 -165 -36 -165 -43 0 -5 -18 -8 -39 -8 -22 0 -42 -4
-45 -9 -8 -13 176 -7 199 7 11 6 14 12 8 12 -7 0 -13 5 -13 10 0 6 19 10 43
10 23 0 55 7 71 15 40 21 48 19 44 -12 -3 -25 -11 -30 -78 -52 -66 -21 -96
-38 -86 -49 2 -2 37 8 77 22 73 24 74 24 82 4 10 -28 3 -35 -44 -41 -23 -3
-45 -10 -48 -14 -6 -9 -275 -38 -296 -32 -5 1 -36 -1 -68 -6 -40 -5 -62 -4
-70 4 -8 8 -5 11 13 11 16 0 21 3 14 10 -6 6 -55 6 -137 1 -98 -7 -138 -15
-173 -32 -29 -14 -42 -24 -34 -29 7 -4 -7 -8 -31 -8 -70 0 -282 -18 -301 -26
-14 -6 -17 -3 -15 21 2 27 4 28 57 29 61 1 222 23 230 31 6 6 -129 -3 -180
-12 -26 -5 -31 -4 -20 4 12 8 5 11 -27 11 -24 0 -43 -5 -43 -11 0 -5 -5 -7
-12 -3 -17 11 23 36 47 30 29 -7 305 19 335 32 20 9 12 10 -40 7 -36 -3 -122
-7 -191 -9 -69 -3 -133 -8 -142 -12 -14 -5 -17 1 -17 35 0 32 4 41 18 42 16 1
16 2 0 6 -24 6 -26 101 -3 108 8 3 23 8 33 12 9 4 22 8 27 9 6 1 12 3 15 4 3
2 34 4 70 6 36 1 65 3 65 4 0 1 38 3 85 5 47 1 177 12 290 25 160 17 477 50
568 59 6 0 12 -3 12 -8z m2708 -3 c-16 -10 -45 -10 -51 0 -3 4 10 7 29 8 21 0
30 -3 22 -8z m178 1 c5 -9 0 -10 -19 -5 -14 3 -29 1 -32 -4 -7 -11 -25 -4 -25
9 0 12 68 12 76 0z m514 7 c0 -3 -4 -8 -10 -11 -5 -3 -10 -1 -10 4 0 6 5 11
10 11 6 0 10 -2 10 -4z m-1125 -16 c3 -6 -2 -10 -12 -10 -11 0 -25 -6 -32 -12
-10 -9 -15 -10 -18 -2 -2 6 -14 10 -26 9 -12 -1 -14 0 -4 2 9 2 15 8 13 12 -3
4 12 8 34 9 21 1 42 -3 45 -8z m865 0 c13 -8 13 -10 -2 -10 -9 0 -20 5 -23 10
-8 13 5 13 25 0z m-2390 -16 c0 -2 -7 -4 -15 -4 -8 0 -15 4 -15 10 0 5 7 7 15
4 8 -4 15 -8 15 -10z m1753 4 c-2 -5 -13 -8 -23 -8 -10 0 -21 3 -23 8 -3 4 8
7 23 7 15 0 26 -3 23 -7z m455 0 c-3 -7 -20 -14 -39 -14 l-34 -2 35 5 c30 5
32 7 15 13 -19 8 -18 9 3 9 15 1 22 -4 20 -11z m37 2 c3 -5 -1 -10 -10 -10 -9
0 -13 5 -10 10 3 6 8 10 10 10 2 0 7 -4 10 -10z m526 -18 c-7 -2 -18 1 -23 6
-8 8 -4 9 13 5 13 -4 18 -8 10 -11z m-1471 -4 c-31 -9 -33 -11 -15 -19 19 -7
19 -8 -3 -8 -13 -1 -30 5 -38 13 -12 13 -11 15 8 19 13 2 37 4 53 5 30 0 30 0
-5 -10z m1053 -18 c10 -17 13 -30 8 -30 -6 0 -11 5 -11 10 0 7 -6 7 -20 0 -25
-13 -26 -2 -2 16 15 12 11 14 -33 15 -44 1 -46 2 -20 9 51 13 60 11 78 -20z
m-816 14 c-3 -3 -12 -4 -19 -1 -8 3 -5 6 6 6 11 1 17 -2 13 -5z m1065 -9 c0
-5 -5 -11 -10 -13 -5 -1 -9 4 -9 13 0 9 4 14 9 13 5 -2 10 -8 10 -13z m-2627
-5 c3 -5 1 -10 -4 -10 -6 0 -11 5 -11 10 0 6 2 10 4 10 3 0 8 -4 11 -10z
m1818 -11 c-5 -5 -20 -5 -33 -2 l-25 7 25 6 c28 8 46 2 33 -11z m-2133 -6 c-1
-26 -14 -53 -27 -53 -8 0 -21 -7 -29 -15 -14 -13 -12 -15 14 -15 28 0 48 -20
35 -34 -10 -10 -35 -7 -28 4 4 6 -7 10 -24 10 -30 0 -31 2 -31 44 0 29 5 46
14 49 8 3 17 1 19 -6 3 -8 10 -7 23 6 19 18 34 22 34 10z m2479 -2 c12 -8 9
-11 -13 -17 -20 -5 -24 -9 -14 -15 10 -7 9 -9 -4 -9 -10 0 -18 7 -18 15 0 8 5
15 11 15 5 0 7 5 4 10 -8 12 15 13 34 1z m-689 -8 c-8 -3 -21 -10 -28 -16 -17
-13 -124 -18 -143 -6 -16 10 -15 10 68 13 34 1 66 5 69 9 4 4 17 7 28 6 15 0
16 -2 6 -6z m70 -2 c0 -10 -30 -24 -37 -17 -3 3 -2 9 2 15 8 13 35 15 35 2z
m75 -1 c-11 -5 -29 -9 -40 -9 -17 -1 -17 1 -5 9 8 5 26 9 40 9 23 0 23 -1 5
-9z m176 -16 c6 -18 4 -21 -13 -16 -15 4 -17 7 -6 14 9 7 5 8 -13 4 -19 -4
-29 -1 -33 10 -5 12 1 15 25 12 22 -2 34 -10 40 -24z m-5459 4 c-9 -9 -15 -9
-24 0 -9 9 -7 12 12 12 19 0 21 -3 12 -12z m5895 -8 c-1 -13 -6 -19 -15 -15
-7 3 -19 5 -25 5 -9 1 28 27 40 30 1 0 1 -9 0 -20z m-949 5 c-6 -6 -138 -45
-152 -45 -27 0 16 21 69 33 66 16 91 20 83 12z m668 -22 c-2 -2 -11 0 -20 3
-14 5 -15 9 -5 15 12 7 34 -10 25 -18z m444 17 c23 -1 23 -2 5 -9 -29 -11
-125 -22 -100 -11 11 5 16 9 10 9 -5 1 -3 6 5 11 8 6 24 8 35 5 11 -2 31 -5
45 -5z m-5994 -25 c19 -19 6 -19 -37 0 l-34 14 28 1 c16 0 35 -7 43 -15z
m1657 -4 c6 -25 -3 -71 -14 -71 -5 0 -9 -5 -9 -11 0 -5 4 -8 9 -4 15 8 22 -11
15 -39 -5 -21 -12 -25 -40 -24 -19 1 -37 -2 -41 -5 -3 -4 5 -7 20 -7 14 0 28
-4 31 -8 3 -5 -40 -7 -95 -5 -72 2 -99 -1 -100 -10 -3 -33 -17 46 -18 99 -1
42 4 65 13 73 8 7 52 16 98 20 127 13 125 13 131 -8z m3582 -1 c-16 -4 -41 -8
-55 -8 -23 -1 -23 0 -5 8 11 5 36 8 55 8 l35 0 -30 -8z m285 -14 c0 -8 -13
-16 -30 -18 -16 -3 -28 -2 -25 0 4 4 44 28 53 31 1 1 2 -5 2 -13z m-201 -32
c3 -3 -19 -3 -47 -2 -28 1 -46 5 -40 9 10 7 78 1 87 -7z m124 9 c-7 -2 -19 -2
-25 0 -7 3 -2 5 12 5 14 0 19 -2 13 -5z m-1563 -23 c-14 -27 -50 -40 -103 -39
l-42 1 35 13 c19 7 46 11 60 8 18 -3 21 -2 11 5 -12 8 5 20 47 31 1 1 -2 -8
-8 -19z m-610 -39 c0 -24 -5 -29 -27 -33 -43 -6 -72 13 -62 40 7 18 16 22 49
22 37 0 40 -2 40 -29z m1120 -11 c11 -7 2 -9 -30 -9 -37 1 -41 2 -20 9 34 11
33 11 50 0z m-1193 -36 c-3 -3 -12 -4 -19 -1 -8 3 -5 6 6 6 11 1 17 -2 13 -5z
m-310 -30 c-3 -3 -12 -4 -19 -1 -8 3 -5 6 6 6 11 1 17 -2 13 -5z m2488 -42
c11 -6 18 -12 15 -13 -21 -6 -200 -23 -200 -19 0 4 17 16 38 28 40 24 110 26
147 4z m-3728 -16 c0 0 3 -12 5 -25 2 -20 -3 -26 -26 -32 -22 -6 -32 -4 -41 7
-6 9 -20 14 -31 12 -17 -4 -16 -6 6 -16 24 -10 24 -11 -10 -11 -19 -1 -58 -4
-87 -7 -50 -6 -52 -6 -46 16 4 16 8 18 14 8 5 -7 9 -8 9 -3 0 7 14 9 34 7 18
-2 37 1 40 7 4 6 33 12 64 12 l57 1 -47 9 c-144 27 -145 27 -43 22 55 -3 101
-6 102 -7z m456 -13 c-7 -2 -21 -2 -30 0 -10 3 -4 5 12 5 17 0 24 -2 18 -5z
m-723 -13 c0 -5 -7 -10 -15 -10 -8 0 -15 5 -15 10 0 6 7 10 15 10 8 0 15 -4
15 -10z m117 4 c-3 -3 -12 -4 -19 -1 -8 3 -5 6 6 6 11 1 17 -2 13 -5z m167
-270 c7 -28 3 -39 -12 -30 -11 7 -13 56 -2 56 4 0 11 -12 14 -26z m-1260 -121
c-10 -40 -14 -41 -14 -5 0 18 5 32 10 32 6 0 8 -11 4 -27z m434 -28 c2 -28 -1
-45 -7 -45 -7 0 -11 22 -11 52 0 61 12 56 18 -7z"/>
<path d="M5808 4098 c-13 -3 12 -6 55 -7 46 -1 76 3 72 8 -6 10 -90 10 -127
-1z"/>
<path d="M5620 4092 c0 -5 -13 -7 -30 -4 -18 3 -30 0 -30 -7 0 -12 48 -15 74
-5 20 8 21 24 1 24 -8 0 -15 -4 -15 -8z"/>
<path d="M5685 4089 c18 -5 33 -5 39 1 7 7 -4 10 -29 9 -40 -1 -40 -1 -10 -10z"/>
<path d="M5745 4091 c-3 -5 2 -11 10 -15 8 -3 17 -1 20 3 3 5 -2 11 -10 15 -8
3 -17 1 -20 -3z"/>
<path d="M6028 4093 c7 -3 16 -2 19 1 4 3 -2 6 -13 5 -11 0 -14 -3 -6 -6z"/>
<path d="M5926 4064 c-9 -8 -28 -14 -43 -12 -16 2 -28 -2 -31 -11 -3 -10 0
-12 12 -8 10 4 32 7 50 7 25 0 32 4 33 20 2 24 -1 25 -21 4z"/>
<path d="M5750 4047 c0 -5 -15 -7 -34 -4 -25 4 -34 2 -30 -7 6 -16 112 -15
118 0 3 7 -8 14 -25 16 -16 3 -29 0 -29 -5z"/>
<path d="M5968 4053 c7 -3 16 -2 19 1 4 3 -2 6 -13 5 -11 0 -14 -3 -6 -6z"/>
<path d="M6008 4053 c7 -3 16 -2 19 1 4 3 -2 6 -13 5 -11 0 -14 -3 -6 -6z"/>
<path d="M5448 4033 c7 -3 16 -2 19 1 4 3 -2 6 -13 5 -11 0 -14 -3 -6 -6z"/>
<path d="M6490 4030 c-12 -8 -11 -10 8 -10 12 0 22 5 22 10 0 13 -11 13 -30 0z"/>
<path d="M5525 4020 c-27 -7 -27 -8 -5 -8 14 0 36 4 50 8 20 6 21 8 5 8 -11 0
-33 -4 -50 -8z"/>
<path d="M5890 4009 c0 -5 5 -7 10 -4 6 3 10 8 10 11 0 2 -4 4 -10 4 -5 0 -10
-5 -10 -11z"/>
<path d="M5638 3993 c7 -3 16 -2 19 1 4 3 -2 6 -13 5 -11 0 -14 -3 -6 -6z"/>
<path d="M5966 3989 c3 -5 -8 -9 -25 -9 -16 0 -33 -5 -36 -11 -7 -10 48 -4 89
11 18 6 17 7 -7 12 -14 3 -24 1 -21 -3z"/>
<path d="M6230 3990 c-29 -5 -32 -7 -14 -13 11 -4 42 -3 69 2 27 5 54 7 62 4
7 -3 13 0 13 6 0 10 -63 11 -130 1z"/>
<path d="M5720 3980 c0 -5 14 -7 33 -3 45 8 47 13 4 13 -20 0 -37 -4 -37 -10z"/>
<path d="M5850 3970 c0 -13 11 -13 30 0 12 8 11 10 -7 10 -13 0 -23 -4 -23
-10z"/>
<path d="M6278 3963 c6 -2 18 -2 25 0 6 3 1 5 -13 5 -14 0 -19 -2 -12 -5z"/>
<path d="M6458 3963 c7 -3 16 -2 19 1 4 3 -2 6 -13 5 -11 0 -14 -3 -6 -6z"/>
<path d="M5723 3933 c9 -2 17 -8 17 -13 0 -8 37 -5 135 10 40 6 29 8 -60 8
-60 0 -102 -2 -92 -5z"/>
<path d="M5935 3930 c-7 -11 9 -11 45 0 24 8 24 8 -7 9 -17 1 -35 -3 -38 -9z"/>
<path d="M6280 3930 c0 -4 11 -10 25 -12 14 -3 25 -2 25 2 0 4 -11 10 -25 12
-14 3 -25 2 -25 -2z"/>
<path d="M5645 3920 c-3 -5 -1 -10 4 -10 6 0 11 5 11 10 0 6 -2 10 -4 10 -3 0
-8 -4 -11 -10z"/>
<path d="M6035 3920 c-4 -6 5 -10 19 -10 14 0 26 5 26 10 0 6 -9 10 -19 10
-11 0 -23 -4 -26 -10z"/>
<path d="M6353 3923 c9 -2 25 -2 35 0 9 3 1 5 -18 5 -19 0 -27 -2 -17 -5z"/>
<path d="M5945 3913 c-42 -6 -54 -21 -13 -18 18 2 44 3 58 4 20 1 22 3 10 11
-8 5 -17 9 -20 8 -3 0 -18 -3 -35 -5z"/>
<path d="M5809 3902 c-8 -2 -21 -6 -29 -9 -25 -10 -128 -12 -105 -3 17 7 14 9
-13 9 -20 1 -31 -3 -27 -9 3 -5 0 -10 -8 -10 -8 0 -28 -7 -43 -15 l-29 -15 35
0 c19 0 46 -3 60 -6 18 -4 21 -3 11 4 -9 7 0 11 34 16 26 4 49 5 53 2 3 -3 -1
-6 -9 -6 -11 0 -11 -2 -1 -9 8 -5 11 -17 7 -34 -7 -25 -8 -26 -108 -26 -136
-1 -136 -1 -142 -11 -9 -15 35 -22 52 -8 14 11 16 11 9 -1 -7 -11 16 -12 145
-7 85 4 183 13 219 21 l65 14 -88 -5 c-52 -3 -87 -1 -83 4 3 5 20 10 38 11 29
2 68 6 91 10 4 0 7 10 7 21 0 17 7 20 43 21 l42 1 -40 9 c-56 11 -97 11 -90
-1 3 -5 1 -10 -6 -10 -8 0 -6 -5 4 -12 14 -11 5 -13 -60 -16 -54 -1 -73 1 -63
8 8 5 24 10 35 11 11 0 14 3 8 6 -7 2 -13 9 -13 14 0 6 6 9 13 7 6 -1 26 5 42
15 l30 17 -36 -2 c-19 -1 -42 -4 -50 -6z"/>
<path d="M6424 3893 c3 -7 -1 -13 -10 -13 -12 0 -12 -4 -4 -20 6 -11 16 -20
23 -20 7 0 6 4 -3 10 -11 7 -1 10 35 12 28 1 61 3 75 4 14 1 31 3 38 3 6 1 12
6 12 11 0 6 -19 9 -46 6 -49 -4 -77 1 -69 13 2 4 -9 8 -26 8 -21 0 -28 -4 -25
-14z"/>
<path d="M6140 3890 c-24 -6 -23 -7 9 -13 39 -8 44 -6 27 8 -6 6 -22 8 -36 5z"/>
<path d="M6203 3893 c9 -2 23 -2 30 0 6 3 -1 5 -18 5 -16 0 -22 -2 -12 -5z"/>
<path d="M6200 3870 c0 -5 5 -10 11 -10 5 0 7 5 4 10 -3 6 -8 10 -11 10 -2 0
-4 -4 -4 -10z"/>
<path d="M6236 3871 c-6 -9 41 -26 58 -22 5 1 31 2 57 3 37 0 46 3 42 14 -6
17 -25 18 -40 3 -8 -8 -22 -8 -49 0 -48 13 -61 14 -68 2z"/>
<path d="M6093 3863 c9 -2 23 -2 30 0 6 3 -1 5 -18 5 -16 0 -22 -2 -12 -5z"/>
<path d="M5515 3850 c-3 -5 1 -10 9 -10 9 0 16 5 16 10 0 6 -4 10 -9 10 -6 0
-13 -4 -16 -10z"/>
<path d="M6178 3843 c6 -2 18 -2 25 0 6 3 1 5 -13 5 -14 0 -19 -2 -12 -5z"/>
<path d="M5970 3829 c0 -5 5 -7 10 -4 6 3 10 8 10 11 0 2 -4 4 -10 4 -5 0 -10
-5 -10 -11z"/>
<path d="M6380 3835 c-8 -2 -32 -6 -53 -10 -49 -8 -38 -25 17 -25 39 0 66 13
66 32 0 8 -3 8 -30 3z"/>
<path d="M6050 3810 c-11 -7 -4 -10 28 -10 23 0 42 5 42 10 0 13 -50 13 -70 0z"/>
<path d="M6135 3810 c-3 -5 1 -10 10 -10 9 0 13 5 10 10 -3 6 -8 10 -10 10 -2
0 -7 -4 -10 -10z"/>
<path d="M6406 3800 c-19 -20 -19 -20 20 -20 29 0 35 3 24 10 -11 7 -2 8 28 4
28 -4 42 -3 42 5 0 6 -8 11 -19 11 -10 0 -31 2 -47 5 -20 3 -35 -1 -48 -15z"/>
<path d="M5698 3803 c7 -3 16 -2 19 1 4 3 -2 6 -13 5 -11 0 -14 -3 -6 -6z"/>
<path d="M6178 3803 c7 -3 16 -2 19 1 4 3 -2 6 -13 5 -11 0 -14 -3 -6 -6z"/>
<path d="M5440 3791 c-22 -6 -23 -8 -7 -14 27 -10 34 -9 41 8 6 16 4 17 -34 6z"/>
<path d="M6173 3773 c9 -2 23 -2 30 0 6 3 -1 5 -18 5 -16 0 -22 -2 -12 -5z"/>
<path d="M6220 3620 c0 -5 7 -10 15 -10 8 0 15 5 15 10 0 6 -7 10 -15 10 -8 0
-15 -4 -15 -10z"/>
<path d="M6293 3623 c15 -2 37 -2 50 0 12 2 0 4 -28 4 -27 0 -38 -2 -22 -4z"/>
<path d="M6188 3613 c7 -3 16 -2 19 1 4 3 -2 6 -13 5 -11 0 -14 -3 -6 -6z"/>
<path d="M4674 3588 c-7 -10 79 -9 131 1 33 7 25 8 -43 8 -46 0 -85 -4 -88 -9z"/>
<path d="M4908 3593 c12 -2 30 -2 40 0 9 3 -1 5 -23 4 -22 0 -30 -2 -17 -4z"/>
<path d="M6328 3593 c7 -3 16 -2 19 1 4 3 -2 6 -13 5 -11 0 -14 -3 -6 -6z"/>
<path d="M6210 3581 c0 -5 12 -8 26 -8 18 0 22 2 13 8 -18 11 -39 11 -39 0z"/>
<path d="M5600 3576 c0 -2 7 -7 16 -10 8 -3 12 -2 9 4 -6 10 -25 14 -25 6z"/>
<path d="M4105 3540 c-3 -5 -1 -10 4 -10 6 0 11 5 11 10 0 6 -2 10 -4 10 -3 0
-8 -4 -11 -10z"/>
<path d="M6056 3524 c-6 -16 12 -18 32 -5 11 6 9 9 -7 14 -12 3 -22 -1 -25 -9z"/>
<path d="M6130 3529 c0 -5 21 -9 47 -9 25 0 44 2 42 4 -10 8 -89 13 -89 5z"/>
<path d="M4753 3523 c9 -2 23 -2 30 0 6 3 -1 5 -18 5 -16 0 -22 -2 -12 -5z"/>
<path d="M5500 3520 c0 -11 14 -11 50 0 22 7 21 8 -12 9 -21 1 -38 -3 -38 -9z"/>
<path d="M6222 3513 c-26 -9 1 -23 45 -23 26 0 44 3 40 6 -9 9 -71 21 -85 17z"/>
<path d="M5365 3480 c3 -5 17 -10 31 -10 13 0 24 -5 24 -11 0 -7 -10 -9 -24
-5 -14 3 -27 2 -30 -3 -5 -7 85 -31 116 -31 21 0 5 18 -24 28 l-33 10 28 1
c15 1 39 -6 52 -15 13 -9 30 -12 36 -8 15 9 -15 21 -86 35 -27 5 -61 12 -73
15 -15 3 -21 1 -17 -6z"/>
<path d="M5525 3480 c-3 -5 1 -10 9 -10 9 0 16 5 16 10 0 6 -4 10 -9 10 -6 0
-13 -4 -16 -10z"/>
<path d="M4548 3473 c6 -2 18 -2 25 0 6 3 1 5 -13 5 -14 0 -19 -2 -12 -5z"/>
<path d="M6368 3473 c7 -3 16 -2 19 1 4 3 -2 6 -13 5 -11 0 -14 -3 -6 -6z"/>
<path d="M5901 3466 c2 -2 36 -6 74 -9 44 -4 61 -3 45 2 -24 9 -127 15 -119 7z"/>
<path d="M4863 3452 c-13 -2 -23 -8 -23 -13 0 -9 93 -2 140 11 25 7 -70 9
-117 2z"/>
<path d="M5105 3450 c3 -5 10 -10 16 -10 5 0 9 5 9 10 0 6 -7 10 -16 10 -8 0
-12 -4 -9 -10z"/>
<path d="M5290 3456 c0 -2 11 -6 25 -8 14 -3 25 -1 25 3 0 5 -11 9 -25 9 -14
0 -25 -2 -25 -4z"/>
<path d="M6175 3450 c-3 -5 1 -10 9 -10 8 0 18 5 21 10 3 6 -1 10 -9 10 -8 0
-18 -4 -21 -10z"/>
<path d="M5188 3443 c6 -2 18 -2 25 0 6 3 1 5 -13 5 -14 0 -19 -2 -12 -5z"/>
<path d="M4708 3433 c7 -3 16 -2 19 1 4 3 -2 6 -13 5 -11 0 -14 -3 -6 -6z"/>
<path d="M5310 3369 c0 -5 5 -7 10 -4 6 3 10 8 10 11 0 2 -4 4 -10 4 -5 0 -10
-5 -10 -11z"/>
<path d="M6015 3370 c-3 -5 1 -10 9 -10 9 0 16 5 16 10 0 6 -4 10 -9 10 -6 0
-13 -4 -16 -10z"/>
<path d="M4860 3350 c0 -5 5 -10 10 -10 6 0 10 5 10 10 0 6 -4 10 -10 10 -5 0
-10 -4 -10 -10z"/>
<path d="M5190 3350 c0 -5 5 -10 10 -10 6 0 10 5 10 10 0 6 -4 10 -10 10 -5 0
-10 -4 -10 -10z"/>
<path d="M5378 3353 c18 -2 45 -2 60 0 15 2 0 4 -33 4 -33 0 -45 -2 -27 -4z"/>
<path d="M5078 3343 c12 -2 32 -2 45 0 12 2 2 4 -23 4 -25 0 -35 -2 -22 -4z"/>
<path d="M5530 3340 c-11 -8 -2 -10 32 -8 26 1 45 5 42 10 -7 11 -56 10 -74
-2z"/>
<path d="M4790 3330 c-9 -6 -10 -10 -3 -10 6 0 15 5 18 10 8 12 4 12 -15 0z"/>
<path d="M4464 3322 c5 -8 66 -4 66 4 0 2 -16 4 -36 4 -19 0 -33 -4 -30 -8z"/>
<path d="M4878 3313 c7 -3 16 -2 19 1 4 3 -2 6 -13 5 -11 0 -14 -3 -6 -6z"/>
<path d="M5468 3313 c7 -3 16 -2 19 1 4 3 -2 6 -13 5 -11 0 -14 -3 -6 -6z"/>
<path d="M5348 3303 c7 -3 16 -2 19 1 4 3 -2 6 -13 5 -11 0 -14 -3 -6 -6z"/>
<path d="M4755 3290 c-3 -5 -2 -10 4 -10 5 0 13 5 16 10 3 6 2 10 -4 10 -5 0
-13 -4 -16 -10z"/>
<path d="M4823 3293 c9 -2 23 -2 30 0 6 3 -1 5 -18 5 -16 0 -22 -2 -12 -5z"/>
<path d="M5500 3280 c0 -12 8 -12 35 0 18 8 17 9 -7 9 -16 1 -28 -3 -28 -9z"/>
<path d="M5580 3278 c0 -4 7 -8 15 -8 8 0 15 4 15 8 0 5 -7 9 -15 9 -8 0 -15
-4 -15 -9z"/>
<path d="M4615 3250 c-14 -6 1 -9 49 -9 38 -1 67 1 65 3 -10 9 -96 14 -114 6z"/>
<path d="M2915 3500 c-13 -6 -15 -9 -5 -9 8 0 22 4 30 9 18 12 2 12 -25 0z"/>
<path d="M2550 3460 c-8 -5 -10 -10 -5 -10 6 0 17 5 25 10 8 5 11 10 5 10 -5
0 -17 -5 -25 -10z"/>
<path d="M2798 3403 c7 -3 16 -2 19 1 4 3 -2 6 -13 5 -11 0 -14 -3 -6 -6z"/>
<path d="M2469 3267 c6 -6 39 -12 73 -14 80 -5 57 13 -25 19 -39 3 -54 1 -48
-5z"/>
<path d="M2688 3253 c6 -2 18 -2 25 0 6 3 1 5 -13 5 -14 0 -19 -2 -12 -5z"/>
<path d="M1943 3213 c9 -2 23 -2 30 0 6 3 -1 5 -18 5 -16 0 -22 -2 -12 -5z"/>
<path d="M6120 3039 c0 -5 14 -9 32 -9 37 0 34 7 -5 14 -15 2 -27 0 -27 -5z"/>
<path d="M6130 3000 c0 -5 7 -10 15 -10 8 0 15 5 15 10 0 6 -7 10 -15 10 -8 0
-15 -4 -15 -10z"/>
<path d="M5788 3133 c7 -3 16 -2 19 1 4 3 -2 6 -13 5 -11 0 -14 -3 -6 -6z"/>
<path d="M5368 3113 c7 -3 16 -2 19 1 4 3 -2 6 -13 5 -11 0 -14 -3 -6 -6z"/>
<path d="M5528 3103 c7 -3 16 -2 19 1 4 3 -2 6 -13 5 -11 0 -14 -3 -6 -6z"/>
<path d="M5300 3090 c-13 -9 -13 -10 0 -10 8 0 22 5 30 10 13 9 13 10 0 10 -8
0 -22 -5 -30 -10z"/>
<path d="M5059 3079 c-10 -6 -4 -9 18 -9 17 0 34 3 36 8 7 10 -38 11 -54 1z"/>
<path d="M5148 3083 c7 -3 16 -2 19 1 4 3 -2 6 -13 5 -11 0 -14 -3 -6 -6z"/>
<path d="M4628 3073 c18 -2 45 -2 60 0 15 2 0 4 -33 4 -33 0 -45 -2 -27 -4z"/>
<path d="M4835 3070 c3 -5 14 -10 23 -10 15 0 15 2 2 10 -20 13 -33 13 -25 0z"/>
<path d="M4480 3060 c-13 -8 -12 -10 3 -10 9 0 17 5 17 10 0 12 -1 12 -20 0z"/>
<path d="M4888 3063 c6 -2 18 -2 25 0 6 3 1 5 -13 5 -14 0 -19 -2 -12 -5z"/>
<path d="M5390 3060 c0 -4 12 -11 27 -15 21 -5 24 -8 12 -16 -22 -14 -5 -11
25 4 l25 14 -44 10 c-25 6 -45 7 -45 3z"/>
<path d="M5605 3060 c3 -5 14 -10 23 -10 15 0 15 2 2 10 -20 13 -33 13 -25 0z"/>
<path d="M5670 3060 c-12 -8 -10 -10 10 -9 14 1 39 -1 55 -4 17 -2 23 -2 15 0
-8 3 -19 9 -24 14 -13 12 -37 11 -56 -1z"/>
<path d="M5145 3050 c-25 -4 -2 -6 58 -4 54 1 100 4 102 6 7 7 -117 6 -160 -2z"/>
<path d="M5530 3050 c8 -5 29 -9 45 -9 29 1 29 1 5 9 -14 4 -34 8 -45 9 -16 1
-17 -1 -5 -9z"/>
<path d="M4193 3043 c9 -2 23 -2 30 0 6 3 -1 5 -18 5 -16 0 -22 -2 -12 -5z"/>
<path d="M4308 3043 c7 -3 16 -2 19 1 4 3 -2 6 -13 5 -11 0 -14 -3 -6 -6z"/>
<path d="M4535 3041 c6 -5 33 -12 60 -16 32 -4 46 -3 40 3 -5 5 -32 12 -60 16
-29 4 -45 3 -40 -3z"/>
<path d="M4647 3039 c7 -7 15 -10 18 -7 3 3 -2 9 -12 12 -14 6 -15 5 -6 -5z"/>
<path d="M5018 3043 c7 -3 16 -2 19 1 4 3 -2 6 -13 5 -11 0 -14 -3 -6 -6z"/>
<path d="M4940 3029 c-14 -6 -33 -8 -44 -5 -11 3 -15 1 -10 -4 5 -4 20 -11 34
-13 14 -3 -14 -5 -62 -4 -52 1 -87 -3 -85 -8 4 -16 227 0 227 16 0 5 -9 9 -21
9 -11 0 -17 5 -14 10 7 12 7 12 -25 -1z"/>
<path d="M5479 3029 c-10 -6 -3 -9 21 -9 19 0 53 -5 75 -10 24 -5 44 -5 49 0
12 12 -5 17 -75 23 -31 3 -63 1 -70 -4z"/>
<path d="M4661 3015 c2 -1 20 -7 40 -13 27 -7 36 -6 36 3 0 8 -15 13 -40 13
-21 1 -38 -1 -36 -3z"/>
<path d="M5030 3010 c-11 -7 -5 -10 23 -10 20 0 37 5 37 10 0 13 -40 13 -60 0z"/>
<path d="M5350 3012 c0 -5 14 -7 30 -4 17 2 30 6 30 8 0 2 -13 4 -30 4 -16 0
-30 -4 -30 -8z"/>
<path d="M4570 3000 c19 -13 30 -13 30 0 0 6 -10 10 -22 10 -19 0 -20 -2 -8
-10z"/>
<path d="M5443 3003 c-24 -2 -43 -8 -43 -12 0 -5 -12 -8 -27 -8 -16 0 -53 -2
-83 -6 -46 -6 -49 -5 -22 3 36 12 44 23 9 15 -13 -4 -59 -7 -103 -8 -107 -3
-128 -23 -31 -29 94 -7 244 -3 282 7 26 7 27 9 10 16 -13 5 -1 8 37 8 31 1 60
6 63 11 6 10 -7 10 -92 3z m-216 -39 c-3 -3 -12 -4 -19 -1 -8 3 -5 6 6 6 11 1
17 -2 13 -5z"/>
<path d="M4620 2990 c0 -12 17 -12 45 0 17 7 15 9 -12 9 -18 1 -33 -3 -33 -9z"/>
<path d="M5560 2980 c0 -5 -19 -10 -42 -11 l-43 -1 44 -10 c47 -10 98 3 86 22
-8 13 -45 13 -45 0z"/>
<path d="M4961 2976 c2 -2 18 -6 34 -10 22 -5 26 -4 15 4 -14 9 -59 15 -49 6z"/>
<path d="M5756 2971 c-11 -4 -15 -10 -10 -13 5 -4 18 0 29 8 20 15 12 17 -19
5z"/>
<path d="M4653 2963 c9 -2 23 -2 30 0 6 3 -1 5 -18 5 -16 0 -22 -2 -12 -5z"/>
<path d="M4820 2930 c8 -5 26 -10 40 -10 20 0 22 2 10 10 -8 5 -26 10 -40 10
-20 0 -22 -2 -10 -10z"/>
<path d="M5495 2930 c-4 -6 9 -10 32 -9 30 0 34 2 18 9 -27 12 -43 12 -50 0z"/>
<path d="M4675 2920 c27 -12 35 -12 35 0 0 6 -12 10 -27 9 -25 0 -26 -1 -8 -9z"/>
<path d="M4720 2921 c0 -6 19 -12 43 -12 23 -1 56 -5 72 -9 l30 -8 -34 -1
c-51 -2 -31 -12 33 -17 62 -5 110 10 68 22 -18 5 -20 9 -11 20 9 11 8 14 -5
14 -9 0 -16 -5 -16 -11 0 -11 -100 -6 -157 8 -14 3 -23 0 -23 -6z"/>
<path d="M4363 2913 c9 -2 23 -2 30 0 6 3 -1 5 -18 5 -16 0 -22 -2 -12 -5z"/>
<path d="M5450 2901 c0 -13 16 -22 56 -31 19 -5 34 -4 34 1 0 5 -7 9 -15 9
-18 0 -20 16 -2 23 6 3 2 6 -10 6 -12 1 -24 -5 -27 -11 -5 -10 -7 -10 -12 0
-7 14 -24 16 -24 3z"/>
<path d="M4248 2893 c12 -2 30 -2 40 0 9 3 -1 5 -23 4 -22 0 -30 -2 -17 -4z"/>
<path d="M4413 2893 c-37 -7 -26 -19 12 -15 19 2 32 8 29 13 -3 5 -8 8 -12 8
-4 -1 -17 -4 -29 -6z"/>
<path d="M4708 2893 c7 -3 16 -2 19 1 4 3 -2 6 -13 5 -11 0 -14 -3 -6 -6z"/>
<path d="M5198 2878 c6 -6 18 -8 28 -6 14 3 12 5 -9 10 -19 3 -25 2 -19 -4z"/>
<path d="M5250 2881 c0 -5 7 -12 16 -15 14 -5 15 -4 4 9 -14 17 -20 19 -20 6z"/>
<path d="M5378 2878 c17 -8 26 -8 34 0 9 9 4 12 -22 11 -33 0 -34 -1 -12 -11z"/>
<path d="M4520 2871 c8 -4 38 -5 65 -1 l50 7 -65 1 c-39 1 -59 -2 -50 -7z"/>
<path d="M5050 2870 c-18 -6 -9 -8 35 -8 44 0 53 2 35 8 -14 4 -29 8 -35 8 -5
0 -21 -4 -35 -8z"/>
<path d="M5425 2870 c-3 -5 1 -10 9 -10 9 0 16 5 16 10 0 6 -4 10 -9 10 -6 0
-13 -4 -16 -10z"/>
<path d="M5297 2857 c3 -6 -6 -8 -26 -5 -18 3 -34 1 -36 -3 -7 -11 46 -21 58
-11 7 6 21 12 32 14 17 3 15 5 -7 10 -17 3 -25 1 -21 -5z"/>
<path d="M4870 2850 c-23 -7 -23 -8 10 -11 54 -4 129 2 135 11 5 8 -117 8
-145 0z"/>
<path d="M4730 2846 c0 -2 7 -6 15 -10 8 -3 15 -1 15 4 0 6 -7 10 -15 10 -8 0
-15 -2 -15 -4z"/>
<path d="M5117 2819 c7 -7 15 -10 18 -7 3 3 -2 9 -12 12 -14 6 -15 5 -6 -5z"/>
<path d="M4890 2800 c-10 -6 -5 -9 18 -8 22 1 29 4 20 9 -16 11 -20 11 -38 -1z"/>
<path d="M4963 2799 c14 -8 22 -8 30 0 8 8 3 11 -18 11 -26 -1 -28 -2 -12 -11z"/>
<path d="M4648 2788 c6 -6 18 -8 28 -6 14 3 12 5 -9 10 -19 3 -25 2 -19 -4z"/>
<path d="M4568 2763 c7 -3 16 -2 19 1 4 3 -2 6 -13 5 -11 0 -14 -3 -6 -6z"/>
<path d="M5098 2753 c7 -3 16 -2 19 1 4 3 -2 6 -13 5 -11 0 -14 -3 -6 -6z"/>
<path d="M3978 2833 c7 -3 16 -2 19 1 4 3 -2 6 -13 5 -11 0 -14 -3 -6 -6z"/>
<path d="M3908 2812 c-10 -2 -18 -10 -18 -18 0 -16 37 -19 60 -4 13 8 13 10
-2 10 -9 0 -18 4 -20 8 -1 4 -11 6 -20 4z"/>
<path d="M4170 2770 c0 -5 5 -10 10 -10 6 0 10 5 10 10 0 6 -4 10 -10 10 -5 0
-10 -4 -10 -10z"/>
<path d="M3928 2703 c6 -2 18 -2 25 0 6 3 1 5 -13 5 -14 0 -19 -2 -12 -5z"/>
<path d="M4000 2700 c0 -5 4 -10 9 -10 6 0 13 5 16 10 3 6 -1 10 -9 10 -9 0
-16 -4 -16 -10z"/>
<path d="M2890 2980 l-25 -8 25 -1 c14 0 32 4 40 9 13 9 13 10 0 9 -8 -1 -26
-5 -40 -9z"/>
<path d="M2760 2940 c-13 -9 -13 -10 0 -10 8 0 22 5 30 10 13 9 13 10 0 10 -8
0 -22 -5 -30 -10z"/>
<path d="M2608 2913 c12 -2 32 -2 45 0 12 2 2 4 -23 4 -25 0 -35 -2 -22 -4z"/>
<path d="M2380 2880 c-8 -5 -10 -10 -5 -10 6 0 17 5 25 10 8 5 11 10 5 10 -5
0 -17 -5 -25 -10z"/>
<path d="M2435 2870 c-8 -13 15 -13 35 0 12 8 11 10 -7 10 -12 0 -25 -4 -28
-10z"/>
<path d="M2578 2803 c12 -2 30 -2 40 0 9 3 -1 5 -23 4 -22 0 -30 -2 -17 -4z"/>
<path d="M1230 2660 c0 -5 5 -10 10 -10 6 0 10 5 10 10 0 6 -4 10 -10 10 -5 0
-10 -4 -10 -10z"/>
<path d="M2078 2663 c7 -3 16 -2 19 1 4 3 -2 6 -13 5 -11 0 -14 -3 -6 -6z"/>
<path d="M1218 2533 c6 -2 18 -2 25 0 6 3 1 5 -13 5 -14 0 -19 -2 -12 -5z"/>
<path d="M1005 2490 c-7 -12 32 -12 60 0 16 7 13 9 -17 9 -20 1 -40 -3 -43 -9z"/>
<path d="M805 2870 l-30 -7 37 -7 c21 -5 49 -4 65 2 24 9 25 11 6 11 -12 1
-27 3 -35 5 -7 2 -26 0 -43 -4z"/>
<path d="M528 2853 c6 -2 18 -2 25 0 6 3 1 5 -13 5 -14 0 -19 -2 -12 -5z"/>
<path d="M1023 2743 c15 -2 37 -2 50 0 12 2 0 4 -28 4 -27 0 -38 -2 -22 -4z"/>
<path d="M865 2550 c-27 -7 -28 -8 -5 -8 14 0 34 3 45 8 25 11 2 11 -40 0z"/>
<path d="M2960 2750 c-11 -7 -7 -10 18 -10 17 0 32 5 32 10 0 13 -30 13 -50 0z"/>
<path d="M5506 2606 c3 -8 13 -12 25 -9 32 9 32 23 0 23 -22 0 -29 -4 -25 -14z"/>
<path d="M4775 2580 c-3 -5 -1 -10 4 -10 6 0 11 5 11 10 0 6 -2 10 -4 10 -3 0
-8 -4 -11 -10z"/>
<path d="M4873 2583 c15 -2 37 -2 50 0 12 2 0 4 -28 4 -27 0 -38 -2 -22 -4z"/>
<path d="M4923 2563 c9 -2 23 -2 30 0 6 3 -1 5 -18 5 -16 0 -22 -2 -12 -5z"/>
<path d="M4720 2550 c-35 -6 -35 -6 14 -13 27 -4 64 -7 83 -7 20 0 32 -4 28
-10 -9 -15 12 -12 28 4 7 8 25 16 38 18 13 2 -13 5 -59 6 -46 1 -87 3 -90 5
-4 2 -23 0 -42 -3z"/>
<path d="M4540 2525 c0 -8 -9 -17 -21 -20 -11 -4 -18 -9 -16 -11 2 -3 21 3 41
13 31 14 40 15 58 4 15 -9 23 -10 28 -2 4 8 15 9 31 3 20 -8 69 0 69 10 0 2
-33 4 -73 6 -39 1 -82 4 -94 7 -15 2 -23 -1 -23 -10z"/>
<path d="M4758 2513 c7 -3 16 -2 19 1 4 3 -2 6 -13 5 -11 0 -14 -3 -6 -6z"/>
<path d="M4600 2420 c0 -5 14 -7 33 -3 45 8 47 13 4 13 -20 0 -37 -4 -37 -10z"/>
<path d="M6018 2593 c6 -2 18 -2 25 0 6 3 1 5 -13 5 -14 0 -19 -2 -12 -5z"/>
<path d="M4310 2459 c0 -5 11 -9 25 -9 14 0 25 2 25 4 0 2 -11 6 -25 8 -14 3
-25 1 -25 -3z"/>
<path d="M4348 2413 c7 -3 16 -2 19 1 4 3 -2 6 -13 5 -11 0 -14 -3 -6 -6z"/>
<path d="M4103 2359 c11 -7 23 -7 35 0 14 9 11 10 -18 10 -29 0 -32 -1 -17
-10z"/>
<path d="M4016 2351 c-7 -10 17 -21 45 -21 10 0 19 7 19 15 0 17 -55 22 -64 6z"/>
<path d="M4128 2323 c7 -3 16 -2 19 1 4 3 -2 6 -13 5 -11 0 -14 -3 -6 -6z"/>
<path d="M4220 2280 c-12 -8 -9 -10 12 -10 15 0 30 5 33 10 8 13 -25 13 -45 0z"/>
<path d="M4325 2263 c-16 -3 -34 -9 -40 -15 -7 -8 -4 -9 8 -4 10 3 34 6 53 6
21 0 33 4 29 10 -3 6 -9 9 -13 9 -4 -1 -20 -4 -37 -6z"/>
<path d="M4085 2250 c3 -5 15 -10 25 -10 10 0 22 5 25 10 4 6 -7 10 -25 10
-18 0 -29 -4 -25 -10z"/>
<path d="M4186 2252 c-13 -12 -5 -22 19 -22 14 0 25 4 25 9 0 10 -36 21 -44
13z"/>
<path d="M4073 2223 c9 -2 23 -2 30 0 6 3 -1 5 -18 5 -16 0 -22 -2 -12 -5z"/>
<path d="M4495 2220 c3 -5 8 -10 11 -10 2 0 4 5 4 10 0 6 -5 10 -11 10 -5 0
-7 -4 -4 -10z"/>
<path d="M4315 2190 c-3 -6 1 -7 9 -4 18 7 21 14 7 14 -6 0 -13 -4 -16 -10z"/>
<path d="M2488 2443 c7 -3 16 -2 19 1 4 3 -2 6 -13 5 -11 0 -14 -3 -6 -6z"/>
<path d="M3015 2420 c-3 -5 3 -10 15 -10 12 0 18 5 15 10 -3 6 -10 10 -15 10
-5 0 -12 -4 -15 -10z"/>
<path d="M2208 2413 c7 -3 16 -2 19 1 4 3 -2 6 -13 5 -11 0 -14 -3 -6 -6z"/>
<path d="M2290 2400 c-11 -7 -5 -10 23 -10 23 0 36 4 32 10 -8 13 -35 13 -55
0z"/>
<path d="M2668 2393 c12 -2 30 -2 40 0 9 3 -1 5 -23 4 -22 0 -30 -2 -17 -4z"/>
<path d="M2378 2383 c7 -3 16 -2 19 1 4 3 -2 6 -13 5 -11 0 -14 -3 -6 -6z"/>
<path d="M2968 2383 c7 -3 16 -2 19 1 4 3 -2 6 -13 5 -11 0 -14 -3 -6 -6z"/>
<path d="M2393 2343 c9 -2 25 -2 35 0 9 3 1 5 -18 5 -19 0 -27 -2 -17 -5z"/>
<path d="M2307 2312 c13 -8 92 -6 101 3 3 3 -21 5 -54 5 -32 0 -54 -4 -47 -8z"/>
<path d="M2920 2309 l-45 -6 58 -1 c31 -1 57 0 57 2 0 9 -28 11 -70 5z"/>
<path d="M2568 2303 c7 -3 16 -2 19 1 4 3 -2 6 -13 5 -11 0 -14 -3 -6 -6z"/>
<path d="M2775 2289 c-16 -6 -14 -8 13 -8 33 -1 41 4 20 12 -7 2 -22 1 -33 -4z"/>
<path d="M2528 2253 c7 -3 16 -2 19 1 4 3 -2 6 -13 5 -11 0 -14 -3 -6 -6z"/>
<path d="M2675 2250 c-3 -5 3 -10 15 -10 12 0 18 5 15 10 -3 6 -10 10 -15 10
-5 0 -12 -4 -15 -10z"/>
<path d="M2420 2235 l-45 -13 37 -1 c41 -1 68 7 68 20 0 11 -3 11 -60 -6z"/>
<path d="M2588 2213 c7 -3 16 -2 19 1 4 3 -2 6 -13 5 -11 0 -14 -3 -6 -6z"/>
<path d="M1958 2193 c12 -2 30 -2 40 0 9 3 -1 5 -23 4 -22 0 -30 -2 -17 -4z"/>
<path d="M2204 2163 c10 -11 36 -12 36 -2 0 5 -10 9 -22 9 -12 0 -18 -3 -14
-7z"/>
<path d="M3043 2093 c9 -2 23 -2 30 0 6 3 -1 5 -18 5 -16 0 -22 -2 -12 -5z"/>
<path d="M2220 2081 c0 -5 9 -7 20 -4 11 3 20 7 20 9 0 2 -9 4 -20 4 -11 0
-20 -4 -20 -9z"/>
<path d="M2558 2083 c6 -2 18 -2 25 0 6 3 1 5 -13 5 -14 0 -19 -2 -12 -5z"/>
<path d="M2728 2083 c7 -3 16 -2 19 1 4 3 -2 6 -13 5 -11 0 -14 -3 -6 -6z"/>
<path d="M2340 2070 c-12 -8 -9 -10 13 -10 16 0 26 4 22 10 -8 12 -16 12 -35
0z"/>
<path d="M2740 2060 c-13 -9 -13 -10 0 -9 8 0 24 4 35 9 l20 9 -20 0 c-11 0
-27 -4 -35 -9z"/>
<path d="M2130 2010 c-9 -6 -10 -10 -3 -10 6 0 15 5 18 10 8 12 4 12 -15 0z"/>
<path d="M2065 2000 c-13 -5 -14 -9 -5 -9 8 0 24 4 35 9 13 5 14 9 5 9 -8 0
-24 -4 -35 -9z"/>
<path d="M3405 2350 c-3 -6 5 -10 19 -10 14 0 28 5 31 10 3 6 -5 10 -19 10
-14 0 -28 -4 -31 -10z"/>
<path d="M5040 2325 c0 -10 9 -15 28 -14 24 0 24 1 7 8 -19 8 -18 9 5 13 21 5
20 5 -7 7 -23 1 -33 -3 -33 -14z"/>
<path d="M5383 2330 c9 -6 15 -15 12 -21 -3 -5 1 -6 10 -3 23 9 13 28 -16 32
-21 2 -22 1 -6 -8z"/>
<path d="M5224 2315 c21 -16 32 -13 21 4 -3 6 -14 11 -23 11 -15 -1 -15 -2 2
-15z"/>
<path d="M5270 2306 c0 -8 4 -17 9 -21 6 -3 9 4 8 15 -1 23 -17 28 -17 6z"/>
<path d="M4860 2260 c0 -5 -7 -10 -17 -10 -9 0 -14 -3 -10 -6 10 -10 58 5 52
16 -8 13 -25 13 -25 0z"/>
<path d="M4888 2223 c7 -3 16 -2 19 1 4 3 -2 6 -13 5 -11 0 -14 -3 -6 -6z"/>
<path d="M4620 2260 c0 -5 9 -10 20 -10 11 0 20 5 20 10 0 6 -9 10 -20 10 -11
0 -20 -4 -20 -10z"/>
<path d="M4350 2019 c0 -5 5 -7 10 -4 6 3 10 8 10 11 0 2 -4 4 -10 4 -5 0 -10
-5 -10 -11z"/>
<path d="M4475 1990 c3 -5 8 -10 11 -10 2 0 4 5 4 10 0 6 -5 10 -11 10 -5 0
-7 -4 -4 -10z"/>
<path d="M4955 1990 c3 -5 12 -7 20 -3 21 7 19 13 -6 13 -11 0 -18 -4 -14 -10z"/>
<path d="M4404 1980 c-12 -5 -25 -13 -29 -19 -3 -6 -22 -11 -40 -11 -28 0 -33
3 -29 18 4 11 3 13 -3 5 -5 -7 -40 -17 -78 -22 -43 -5 -56 -9 -35 -10 27 -1
32 -4 20 -11 -11 -8 -8 -9 13 -4 33 8 41 8 87 4 19 -1 27 -4 18 -7 -10 -2 -18
-8 -18 -13 0 -10 38 -1 45 11 3 4 13 5 22 2 10 -4 14 -2 10 4 -4 7 7 9 32 7
23 -2 46 3 57 11 17 14 14 14 -36 11 -49 -4 -53 -3 -36 9 10 8 23 12 27 9 5
-3 9 0 9 5 0 13 -7 13 -36 1z"/>
<path d="M4874 1960 c-11 -4 -48 -8 -82 -7 -35 0 -68 -5 -74 -11 -7 -7 -23
-12 -37 -12 -31 -1 -157 -33 -167 -43 -4 -4 4 -7 17 -8 23 -1 23 -1 -6 -14
-16 -8 -55 -17 -85 -21 -41 -5 -50 -9 -35 -15 28 -11 105 -11 105 0 0 5 13 11
29 13 17 2 28 1 25 -4 -3 -4 -14 -8 -25 -8 -10 0 -19 -5 -19 -11 0 -6 8 -7 23
-3 12 4 44 8 71 8 68 1 76 26 9 27 -26 1 -40 3 -30 6 9 2 17 9 17 14 0 5 -8 9
-17 10 -10 1 0 7 22 14 25 9 63 11 103 8 64 -6 79 1 40 17 -18 7 -9 9 37 9 65
1 165 21 165 33 0 10 -59 9 -86 -2z"/>
<path d="M4993 1943 c16 -10 5 -23 -20 -24 -25 -1 -25 -2 7 -9 21 -5 36 -5 38
1 2 5 10 9 18 9 8 0 14 5 14 10 0 6 -9 10 -19 10 -11 0 -25 2 -33 3 -7 2 -10
2 -5 0z"/>
<path d="M4445 1900 c-16 -7 -17 -9 -3 -9 9 -1 20 4 23 9 7 11 7 11 -20 0z"/>
<path d="M4680 1888 c0 -14 25 -19 51 -10 22 9 21 10 -14 14 -20 2 -37 0 -37
-4z"/>
<path d="M4815 1890 c44 -11 116 -11 90 0 -11 5 -42 8 -70 8 -43 0 -46 -1 -20
-8z"/>
<path d="M4951 1881 c-9 -6 -10 -11 -2 -15 13 -8 31 1 31 15 0 11 -11 11 -29
0z"/>
<path d="M4306 1860 c-16 -5 -71 -12 -123 -16 -124 -9 -133 -26 -11 -20 100 4
218 25 218 38 0 10 -46 9 -84 -2z"/>
<path d="M4788 1863 c7 -3 16 -2 19 1 4 3 -2 6 -13 5 -11 0 -14 -3 -6 -6z"/>
<path d="M4723 1853 c9 -2 25 -2 35 0 9 3 1 5 -18 5 -19 0 -27 -2 -17 -5z"/>
<path d="M4890 1850 c-12 -8 -9 -10 13 -10 15 0 27 5 27 10 0 13 -20 13 -40 0z"/>
<path d="M4808 1823 c-21 -2 -38 -8 -38 -14 0 -5 -7 -9 -16 -9 -11 0 -14 -5
-9 -17 11 -29 11 -37 0 -38 -5 -1 -18 -5 -28 -10 -30 -13 -4 -20 57 -17 51 4
55 5 46 23 -6 10 -15 19 -21 19 -6 0 -7 -5 -3 -12 4 -7 3 -8 -5 -4 -6 4 -9 12
-6 17 4 5 1 9 -4 9 -6 0 -11 5 -11 10 0 6 7 10 16 10 8 0 13 3 11 8 -3 4 15 8
40 8 24 1 50 7 56 13 11 11 -4 12 -85 4z"/>
<path d="M4500 1770 c-24 -8 -23 -8 8 -9 17 -1 32 4 32 9 0 11 -5 11 -40 0z"/>
<path d="M4607 1750 c-9 -11 -17 -23 -17 -25 0 -11 38 15 44 30 8 21 -6 19
-27 -5z"/>
<path d="M5105 1750 c-16 -7 -17 -9 -3 -9 9 -1 20 4 23 9 7 11 7 11 -20 0z"/>
<path d="M4660 1740 c0 -12 17 -12 45 0 17 7 15 9 -12 9 -18 1 -33 -3 -33 -9z"/>
<path d="M4445 1720 c-22 -5 -26 -9 -14 -14 17 -7 68 8 53 16 -5 2 -22 1 -39
-2z"/>
<path d="M4518 1723 c7 -3 16 -2 19 1 4 3 -2 6 -13 5 -11 0 -14 -3 -6 -6z"/>
<path d="M2690 1880 c0 -5 11 -10 25 -10 14 0 25 5 25 10 0 6 -11 10 -25 10
-14 0 -25 -4 -25 -10z"/>
<path d="M2377 1853 c-4 -3 -24 -9 -44 -13 -35 -7 -35 -8 -8 -8 17 -1 41 5 55
13 14 8 20 14 14 15 -6 0 -14 -3 -17 -7z"/>
<path d="M2440 1820 c-14 -4 15 -5 64 -3 50 2 92 6 95 8 7 8 -132 4 -159 -5z"/>
<path d="M2850 1800 c-12 -8 -12 -10 5 -10 11 0 27 5 35 10 12 8 12 10 -5 10
-11 0 -27 -5 -35 -10z"/>
<path d="M2543 1769 c-47 -13 -41 -23 9 -15 52 8 85 26 48 25 -14 -1 -40 -5
-57 -10z"/>
<path d="M2695 1764 l-30 -14 30 6 c31 6 41 11 34 18 -2 2 -17 -2 -34 -10z"/>
<path d="M2415 1760 l-20 -9 20 1 c11 0 31 4 45 8 l25 8 -25 0 c-14 0 -34 -3
-45 -8z"/>
<path d="M1998 1733 c6 -2 18 -2 25 0 6 3 1 5 -13 5 -14 0 -19 -2 -12 -5z"/>
<path d="M2125 1730 c-4 -6 12 -10 42 -10 35 0 44 3 33 10 -20 13 -67 13 -75
0z"/>
<path d="M2378 1733 c6 -2 18 -2 25 0 6 3 1 5 -13 5 -14 0 -19 -2 -12 -5z"/>
<path d="M2748 1733 c7 -3 16 -2 19 1 4 3 -2 6 -13 5 -11 0 -14 -3 -6 -6z"/>
<path d="M2045 1720 c4 -6 11 -8 16 -5 14 9 11 15 -7 15 -8 0 -12 -5 -9 -10z"/>
<path d="M1965 1710 c-4 -6 9 -10 32 -9 30 0 34 2 18 9 -27 12 -43 12 -50 0z"/>
<path d="M2264 1709 c-3 -5 15 -9 40 -9 25 0 47 4 50 8 3 5 -15 9 -39 10 -25
0 -47 -4 -51 -9z"/>
<path d="M2158 1703 c6 -2 18 -2 25 0 6 3 1 5 -13 5 -14 0 -19 -2 -12 -5z"/>
<path d="M2395 1700 l-40 -7 40 -1 c22 -1 47 3 55 8 18 12 10 12 -55 0z"/>
<path d="M1938 1673 c7 -3 16 -2 19 1 4 3 -2 6 -13 5 -11 0 -14 -3 -6 -6z"/>
<path d="M1988 1673 c7 -3 16 -2 19 1 4 3 -2 6 -13 5 -11 0 -14 -3 -6 -6z"/>
<path d="M2700 1676 c0 -2 7 -7 16 -10 8 -3 12 -2 9 4 -6 10 -25 14 -25 6z"/>
<path d="M2380 1660 c0 -13 11 -13 30 0 12 8 11 10 -7 10 -13 0 -23 -4 -23
-10z"/>
<path d="M2880 1640 c0 -5 11 -10 25 -10 14 0 25 5 25 10 0 6 -11 10 -25 10
-14 0 -25 -4 -25 -10z"/>
<path d="M2140 1560 c-11 -7 -5 -8 20 -4 43 8 51 14 19 14 -13 0 -31 -5 -39
-10z"/>
<path d="M2068 1543 c12 -2 30 -2 40 0 9 3 -1 5 -23 4 -22 0 -30 -2 -17 -4z"/>
<path d="M3460 1700 c-12 -8 -11 -10 8 -10 12 0 22 5 22 10 0 13 -11 13 -30 0z"/>
<path d="M9060 7680 c8 -5 24 -10 34 -10 26 0 18 6 -19 14 -22 5 -26 4 -15 -4z"/>
<path d="M6606 6511 c-18 -7 -18 -8 -2 -14 27 -11 36 -8 36 8 0 16 -5 17 -34
6z"/>
<path d="M6070 5645 c7 -8 17 -15 22 -15 6 0 5 7 -2 15 -7 8 -17 15 -22 15 -6
0 -5 -7 2 -15z"/>
<path d="M6208 5653 c6 -2 18 -2 25 0 6 3 1 5 -13 5 -14 0 -19 -2 -12 -5z"/>
<path d="M6210 5590 c19 -13 30 -13 30 0 0 6 -10 10 -22 10 -19 0 -20 -2 -8
-10z"/>
<path d="M6004 5559 c-14 -16 -15 -23 -6 -26 6 -3 9 -10 6 -15 -4 -7 -2 -8 4
-4 6 4 8 14 5 23 -5 12 -2 15 10 10 18 -7 21 1 9 21 -7 9 -13 7 -28 -9z"/>
<path d="M5892 5470 c0 -19 2 -27 5 -17 2 9 2 25 0 35 -3 9 -5 1 -5 -18z"/>
<path d="M5940 5470 c0 -5 5 -10 11 -10 5 0 7 5 4 10 -3 6 -8 10 -11 10 -2 0
-4 -4 -4 -10z"/>
<path d="M5335 5210 c-3 -5 -1 -10 4 -10 6 0 11 5 11 10 0 6 -2 10 -4 10 -3 0
-8 -4 -11 -10z"/>
<path d="M5403 5140 c0 -25 2 -35 4 -22 2 12 2 32 0 45 -2 12 -4 2 -4 -23z"/>
<path d="M5345 5160 c-3 -5 -1 -10 4 -10 6 0 11 5 11 10 0 6 -2 10 -4 10 -3 0
-8 -4 -11 -10z"/>
<path d="M5345 5130 c-3 -5 -1 -10 4 -10 6 0 11 5 11 10 0 6 -2 10 -4 10 -3 0
-8 -4 -11 -10z"/>
<path d="M4041 4662 c0 -4 4 -16 8 -26 7 -19 8 -19 13 1 4 14 0 24 -8 27 -8 3
-14 2 -13 -2z"/>
<path d="M2737 4473 c3 -7 6 -13 8 -13 2 0 5 6 8 13 3 8 -1 14 -8 14 -7 0 -11
-6 -8 -14z"/>
<path d="M2707 4433 c-11 -10 -8 -20 7 -26 10 -4 12 0 9 14 -6 21 -7 22 -16
12z"/>
<path d="M2629 4415 c-1 -3 -3 -9 -4 -15 -1 -5 -3 -14 -4 -19 -3 -21 -221 -35
-221 -14 0 7 -4 13 -10 13 -5 0 -10 -4 -10 -10 0 -5 -11 -10 -24 -10 -14 0
-26 -6 -29 -12 -2 -7 -2 -3 -1 9 4 21 4 21 -39 5 -53 -20 -54 -21 -37 -32 13
-8 12 -10 -2 -10 -9 0 -19 6 -22 13 -5 10 -7 10 -12 0 -3 -7 -21 -13 -39 -13
-18 0 -36 6 -38 13 -4 9 -8 8 -16 -3 -10 -13 -13 -13 -25 3 -15 20 -37 22 -53
6 -9 -9 -8 -15 2 -26 12 -11 71 -14 330 -12 284 1 317 3 322 18 2 9 10 26 16
39 8 16 8 25 -1 34 -9 9 -12 8 -12 -5 0 -9 -4 -17 -10 -17 -5 0 -7 7 -4 15 4
8 1 15 -6 15 -6 0 -9 -4 -6 -8 8 -13 -11 -35 -23 -28 -15 10 -14 43 2 49 7 3
5 6 -5 6 -10 1 -19 -1 -19 -4z m-319 -75 c0 -5 -4 -10 -10 -10 -5 0 -10 5 -10
10 0 6 5 10 10 10 6 0 10 -4 10 -10z m70 -14 c0 -3 -4 -8 -10 -11 -5 -3 -10
-1 -10 4 0 6 5 11 10 11 6 0 10 -2 10 -4z"/>
<path d="M1975 4309 c-28 -6 -26 -7 13 -8 42 -1 53 3 30 11 -7 2 -26 1 -43 -3z"/>
<path d="M1498 4283 c7 -3 16 -2 19 1 4 3 -2 6 -13 5 -11 0 -14 -3 -6 -6z"/>
<path d="M1616 3453 c-8 -27 -5 -243 4 -248 4 -3 8 56 9 130 1 130 -1 155 -13
118z"/>
<path d="M468 3403 c7 -3 16 -2 19 1 4 3 -2 6 -13 5 -11 0 -14 -3 -6 -6z"/>
<path d="M83 3223 c9 -2 23 -2 30 0 6 3 -1 5 -18 5 -16 0 -22 -2 -12 -5z"/>
<path d="M7 3213 c7 -2 19 -2 26 0 6 3 1 5 -13 5 -14 0 -19 -2 -13 -5z"/>
<path d="M1619 3188 c-7 -25 -7 -48 1 -53 6 -4 10 7 10 24 0 17 -2 31 -5 31
-3 0 -5 -1 -6 -2z"/>
<path d="M48 3163 c6 -2 18 -2 25 0 6 3 1 5 -13 5 -14 0 -19 -2 -12 -5z"/>
<path d="M268 3073 c18 -2 45 -2 60 0 15 2 0 4 -33 4 -33 0 -45 -2 -27 -4z"/>
<path d="M63 2783 c9 -2 23 -2 30 0 6 3 -1 5 -18 5 -16 0 -22 -2 -12 -5z"/>
<path d="M288 2773 c6 -2 18 -2 25 0 6 3 1 5 -13 5 -14 0 -19 -2 -12 -5z"/>
<path d="M8 2763 c7 -3 16 -2 19 1 4 3 -2 6 -13 5 -11 0 -14 -3 -6 -6z"/>
<path d="M128 2763 c6 -2 18 -2 25 0 6 3 1 5 -13 5 -14 0 -19 -2 -12 -5z"/>
<path d="M236 2742 c-3 -5 8 -6 25 -4 16 2 29 6 29 8 0 8 -49 4 -54 -4z"/>
<path d="M13 2673 c9 -2 23 -2 30 0 6 3 -1 5 -18 5 -17 0 -22 -2 -12 -5z"/>
<path d="M75 2660 c-8 -13 5 -13 25 0 13 8 13 10 -2 10 -9 0 -20 -4 -23 -10z"/>
<path d="M138 2663 c7 -3 16 -2 19 1 4 3 -2 6 -13 5 -11 0 -14 -3 -6 -6z"/>
<path d="M350 2650 c0 -5 7 -10 15 -10 8 0 15 5 15 10 0 6 -7 10 -15 10 -8 0
-15 -4 -15 -10z"/>
<path d="M70 2630 c-11 -7 -5 -8 20 -4 43 8 51 14 19 14 -13 0 -31 -5 -39 -10z"/>
<path d="M486 2581 c-3 -5 10 -8 28 -8 19 1 32 5 30 9 -7 11 -51 10 -58 -1z"/>
<path d="M8 2533 c7 -3 16 -2 19 1 4 3 -2 6 -13 5 -11 0 -14 -3 -6 -6z"/>
<path d="M573 2473 c9 -2 25 -2 35 0 9 3 1 5 -18 5 -19 0 -27 -2 -17 -5z"/>
<path d="M470 2462 c0 -5 14 -7 30 -4 17 2 30 6 30 8 0 2 -13 4 -30 4 -16 0
-30 -4 -30 -8z"/>
<path d="M205 2440 c-4 -6 7 -10 24 -10 17 0 31 5 31 10 0 6 -11 10 -24 10
-14 0 -28 -4 -31 -10z"/>
<path d="M350 2430 c-12 -7 -8 -10 15 -10 17 0 37 5 45 10 12 7 8 10 -15 10
-16 0 -37 -5 -45 -10z"/>
<path d="M1423 2349 c-37 -11 -53 -29 -25 -29 30 0 83 21 76 31 -6 10 -8 10
-51 -2z"/>
<path d="M1578 2313 c6 -2 10 -9 6 -14 -3 -5 0 -9 5 -9 6 0 11 7 11 15 0 8 -8
15 -17 14 -11 0 -13 -3 -5 -6z"/>
<path d="M1015 2300 c-3 -6 1 -7 9 -4 18 7 21 14 7 14 -6 0 -13 -4 -16 -10z"/>
<path d="M930 2284 c-32 -14 -33 -16 -16 -26 13 -7 20 -7 26 1 4 7 21 13 38
13 26 1 30 4 21 15 -14 16 -25 16 -69 -3z"/>
<path d="M1248 2263 c6 -2 18 -2 25 0 6 3 1 5 -13 5 -14 0 -19 -2 -12 -5z"/>
<path d="M888 2243 c7 -3 16 -2 19 1 4 3 -2 6 -13 5 -11 0 -14 -3 -6 -6z"/>
<path d="M1445 2230 c-4 -6 7 -10 27 -9 27 0 30 2 13 9 -27 12 -33 12 -40 0z"/>
<path d="M778 2223 c7 -3 16 -2 19 1 4 3 -2 6 -13 5 -11 0 -14 -3 -6 -6z"/>
<path d="M1318 2223 c7 -3 16 -2 19 1 4 3 -2 6 -13 5 -11 0 -14 -3 -6 -6z"/>
<path d="M723 2213 c9 -2 23 -2 30 0 6 3 -1 5 -18 5 -16 0 -22 -2 -12 -5z"/>
<path d="M0 2200 c0 -5 7 -10 15 -10 8 0 15 5 15 10 0 6 -7 10 -15 10 -8 0
-15 -4 -15 -10z"/>
<path d="M1445 2170 c-15 -7 -9 -9 25 -9 33 -1 41 2 30 9 -18 12 -28 12 -55 0z"/>
<path d="M640 2160 c0 -12 27 -12 55 0 16 7 13 9 -17 9 -21 1 -38 -3 -38 -9z"/>
<path d="M1119 2150 c-48 -19 -63 -40 -27 -38 13 1 42 -1 66 -6 30 -5 47 -4
58 4 9 9 35 11 77 8 34 -3 71 -2 82 3 11 4 16 8 10 9 -5 1 -1 5 10 9 12 5 -20
9 -79 9 -55 1 -102 5 -105 9 -10 13 -47 10 -92 -7z"/>
<path d="M720 2135 c-14 -8 -34 -14 -44 -15 -11 0 -16 -3 -13 -6 6 -7 117 24
117 32 0 9 -37 2 -60 -11z"/>
<path d="M810 2110 c-8 -5 -10 -10 -5 -10 6 0 17 5 25 10 8 5 11 10 5 10 -5 0
-17 -5 -25 -10z"/>
<path d="M1555 2110 c-8 -13 15 -13 35 0 12 8 11 10 -7 10 -12 0 -25 -4 -28
-10z"/>
<path d="M583 2083 c15 -2 37 -2 50 0 12 2 0 4 -28 4 -27 0 -38 -2 -22 -4z"/>
<path d="M1060 2086 c0 -2 9 -6 20 -9 11 -3 20 -1 20 4 0 5 -9 9 -20 9 -11 0
-20 -2 -20 -4z"/>
<path d="M265 2060 c-3 -5 1 -10 9 -10 8 0 18 5 21 10 3 6 -1 10 -9 10 -8 0
-18 -4 -21 -10z"/>
<path d="M365 2051 c-11 -19 27 -43 58 -37 16 3 36 6 43 6 19 0 18 26 -2 34
-24 9 -92 7 -99 -3z"/>
<path d="M720 2050 c0 -12 17 -12 45 0 17 7 15 9 -12 9 -18 1 -33 -3 -33 -9z"/>
<path d="M188 2003 c7 -3 16 -2 19 1 4 3 -2 6 -13 5 -11 0 -14 -3 -6 -6z"/>
<path d="M505 1960 c-3 -5 -1 -10 4 -10 6 0 11 5 11 10 0 6 -2 10 -4 10 -3 0
-8 -4 -11 -10z"/>
<path d="M585 1940 c-8 -13 5 -13 25 0 13 8 13 10 -2 10 -9 0 -20 -4 -23 -10z"/>
<path d="M775 1910 c-3 -5 1 -10 9 -10 8 0 18 5 21 10 3 6 -1 10 -9 10 -8 0
-18 -4 -21 -10z"/>
<path d="M943 1898 c15 -5 27 -14 27 -19 0 -5 21 -9 46 -9 25 0 43 4 40 9 -3
5 -15 7 -26 4 -22 -6 -28 12 -7 20 6 3 -15 5 -48 5 -52 0 -56 -1 -32 -10z"/>
<path d="M688 1893 c12 -2 30 -2 40 0 9 3 -1 5 -23 4 -22 0 -30 -2 -17 -4z"/>
<path d="M875 1888 c-16 -5 -46 -13 -65 -17 -30 -7 -32 -9 -16 -16 13 -6 29
-3 48 8 17 9 36 17 43 17 8 0 17 5 20 10 3 6 5 10 3 9 -2 0 -16 -5 -33 -11z"/>
<path d="M280 1880 c0 -5 5 -10 11 -10 5 0 7 5 4 10 -3 6 -8 10 -11 10 -2 0
-4 -4 -4 -10z"/>
<path d="M438 1883 c7 -3 16 -2 19 1 4 3 -2 6 -13 5 -11 0 -14 -3 -6 -6z"/>
<path d="M525 1880 c-3 -5 -16 -10 -27 -10 -46 0 -3 -15 45 -16 29 -1 75 -4
102 -7 l50 -6 -50 13 c-33 10 -42 14 -25 15 20 1 22 3 10 11 -20 13 -97 13
-105 0z"/>
<path d="M1118 1883 c7 -3 16 -2 19 1 4 3 -2 6 -13 5 -11 0 -14 -3 -6 -6z"/>
<path d="M348 1863 c-21 -8 -36 -18 -34 -22 6 -10 146 -1 146 10 0 5 -13 9
-30 9 -16 0 -30 5 -30 10 0 13 -7 12 -52 -7z"/>
<path d="M670 1681 c-17 -10 -100 -36 -142 -45 -16 -4 -28 -11 -28 -18 0 -8
21 -9 73 -3 39 4 90 7 112 7 l40 -2 -30 14 -30 14 38 1 c41 1 46 7 20 27 -21
16 -32 17 -53 5z"/>
<path d="M769 1669 c-8 -5 -12 -9 -9 -10 3 0 13 -2 22 -4 10 -2 20 0 23 5 8
12 -20 19 -36 9z"/>
<path d="M466 1661 c5 -5 27 -6 49 -1 l40 8 -49 1 c-30 1 -46 -3 -40 -8z"/>
<path d="M1467 1653 c-10 -2 -16 -10 -14 -16 2 -7 29 -11 70 -11 64 0 88 7 74
20 -8 9 -106 14 -130 7z"/>
<path d="M1110 1580 l-25 -8 25 0 c14 0 39 4 55 8 l30 8 -30 0 c-16 0 -41 -4
-55 -8z"/>
<path d="M65 1500 c-3 -5 -19 -10 -36 -10 -24 0 -29 -4 -29 -24 0 -23 2 -23
71 -20 48 3 77 0 87 -9 13 -10 14 -9 8 1 -6 9 -2 11 16 8 12 -3 39 -2 58 3 39
10 22 14 -52 11 -29 -1 -56 5 -70 14 -22 16 -22 16 12 16 26 0 31 3 20 10 -20
13 -77 13 -85 0z"/>
<path d="M245 1390 c-18 -8 -17 -9 8 -9 16 -1 26 3 22 9 -3 6 -7 10 -8 9 -1 0
-11 -4 -22 -9z"/>
</g>
</svg>
